<svg xmlns="http://www.w3.org/2000/svg" role="img" viewBox="-3.63 -2.38 306.02 89.27"><title>Lumberyard Project logo</title><path fill="#67469a" d="M187.37772 81.08637a8.94379 8.94379 0 0 1-4.19353-3.26023 10.33163 10.33163 0 0 1-1.64553-6.98575c.41882-4.35608 2.3989-8.09135 4.706-11.69195a55.59112 55.59112 0 0 1 6.48391-8.03589 2.0246 2.0246 0 0 0 .52161-2.02081c-.36684.40839-.63937.77317-.97134 1.0719a7.763 7.763 0 0 1-11.29607-.27921 13.43352 13.43352 0 0 1-2.0609-2.65032c-.51281-.8532-1.11536-.83865-1.60924.03883a10.09877 10.09877 0 0 1-3.31694 3.737 7.67881 7.67881 0 0 1-10.28994-2.02065 16.80169 16.80169 0 0 1-2.91825-6.91024 19.20713 19.20713 0 0 1-.49105-3.50562.78419.78419 0 0 0-.72455-.86718 7.956 7.956 0 0 0-2.80367.14446c-.244.04991-.24839.22255-.28806.39321a18.55209 18.55209 0 0 1-15.83367 14.27967 12.917 12.917 0 0 1-9.36325-1.98562 7.73411 7.73411 0 0 1-3.543-5.67872 8.80753 8.80753 0 0 1 1.28173-5.40987c2.46395-4.14983 6.04491-6.4471 10.98063-6.24466a7.40352 7.40352 0 0 1 5.29758 2.49817 5.25 5.25 0 0 1-.84572 7.79953 9.04143 9.04143 0 0 1-6.25678 2.0003 11.805 11.805 0 0 1-5.5416-1.3533c-.13761-.078-.28637-.17734-.43477-.02267a.55984.55984 0 0 0-.15312.54679 3.65442 3.65442 0 0 0 1.26478 1.99354 6.87572 6.87572 0 0 0 3.778 1.55228 13.986 13.986 0 0 0 14.17563-8.16947c.294-.66143.20115-.99641-.37251-1.28513a3.56447 3.56447 0 0 1 1.30158-6.88553 3.55537 3.55537 0 0 1 3.38241 1.273.90128.90128 0 0 0 .94979.33751 10.24028 10.24028 0 0 1 4.00033.02 4.91386 4.91386 0 0 1 4.0695 4.8304 17.71249 17.71249 0 0 0 1.60348 6.54943 6.40856 6.40856 0 0 0 1.34927 1.90177 3.25174 3.25174 0 0 0 4.97756-.20869 11.43359 11.43359 0 0 0 2.30732-4.95985 25.62109 25.62109 0 0 0 .7221-5.649.854.854 0 0 1 .96773-.96133c.94258-.01487 1.88559-.00624 2.8284-.0046.62412.00109.88806.27312.90574.88486a19.13915 19.13915 0 0 0 2.04519 8.56651 9.15986 9.15986 0 0 0 1.61091 2.23416c1.99752 1.99149 4.10565 1.90439 5.95165-.24013a13.37316 13.37316 0 0 0 2.65626-5.2634 19.9224 19.9224 0 0 0 .74151-5.51865c-.00381-.507.13681-.70889.68244-.67705.83967.049 1.6843.01135 2.52681.01358.91067.00242 1.18253.2598 1.186 1.18306.00879 2.30641.00266 4.61287.003 6.91932 0 .28073.01052.56169.00245.84216a.714.714 0 0 0 .45087.77017.74124.74124 0 0 0 .8736-.20546c1.776-1.87744 3.68822-3.62094 5.36154-5.60137a14.40425 14.40425 0 0 1 9.75114-5.00082 12.22857 12.22857 0 0 1 6.84452 1.09357c.1929.093.29107.1429.37657-.13287a.82743.82743 0 0 1 .89844-.55766c.76227.00336 1.5246-.00451 2.28683.002.83632.00717 1.109.27667 1.11106 1.13127.006 2.507-.03236 5.01456.01108 7.52079a4.86833 4.86833 0 0 0 9.26222 2.41872 11.60526 11.60526 0 0 0 1.206-4.36847c.06383-.59675.052-1.20165.11722-1.79818.05118-.4679-.09756-.6928-.58151-.75047a3.87612 3.87612 0 0 1-.97593-.2848 2.92734 2.92734 0 0 1-1.9113-3.24786 2.98253 2.98253 0 0 1 2.85833-2.46729 4.42076 4.42076 0 0 1 3.65736 1.32906.75386.75386 0 0 0 .697.22793 30.87833 30.87833 0 0 1 4.617-.1187 9.30085 9.30085 0 0 1 2.53117.4713 4.59777 4.59777 0 0 1 3.30738 5.45651 13.81247 13.81247 0 0 0 .39579 5.71439c.75381 2.65678 2.57181 3.32225 5.14489 2.05122a5.81049 5.81049 0 0 0 3.06535-4.17382 10.5286 10.5286 0 0 1 3.88085-6.24335 14.38132 14.38132 0 0 1 11.62976-3.1906c.91061.13753 1.253-.23678 1.09993-1.15807a90.32945 90.32945 0 0 1-1.13038-12.31666 42.73661 42.73661 0 0 1 .48689-8.56821 13.11016 13.11016 0 0 1 2.45515-6.24434 5.592 5.592 0 0 1 5.97929-1.98322 4.85226 4.85226 0 0 1 3.35136 3.10922 17.83112 17.83112 0 0 1 1.20881 6.33507 93.58374 93.58374 0 0 1-.56961 13.91885 55.938 55.938 0 0 1-1.833 10.572 22.96993 22.96993 0 0 1-1.83746 4.49132 1.50035 1.50035 0 0 0-.16266 1.03592 9.00558 9.00558 0 0 0 .78293 2.63478 3.84542 3.84542 0 0 0 6.70477.66617 8.77323 8.77323 0 0 0 1.31681-2.41594c.261-.70174.49785-.83077 1.22547-.67611q1.14465.24332 2.28623.50091c.677.15314.92893.51548.736 1.182-1.18383 4.08938-4.28823 7.26317-8.58392 7.40163a7.88786 7.88786 0 0 1-6.90343-3.59425c-.71466-1.00181-.906-.97911-1.84416-.1442-4.32922 3.85266-9.2553 5.1585-14.85979 3.33786a8.16605 8.16605 0 0 1-3.13852-1.95389c-.58665-.5661-.86122-.55842-1.47385-.00124a8.41293 8.41293 0 0 1-8.52636 1.96383c-2.39094-.71283-3.69855-2.57038-4.4776-4.82978a18.03935 18.03935 0 0 1-.71164-8.01133c.06744-.59625-.1522-.79183-.66585-.88844a18.02451 18.02451 0 0 0-4.13586-.08534c-.50346.02152-.75572.34785-.77056.889a19.75394 19.75394 0 0 1-1.18481 6.88651c-1.19344 2.98608-3.16652 5.228-6.35256 6.07347a8.84256 8.84256 0 0 1-9.50385-2.85438c-.52091-.59008-.81174-.62572-1.3996-.12578a14.73019 14.73019 0 0 1-11.57542 3.63714 9.21212 9.21212 0 0 1-7.51346-4.64181.73081.73081 0 0 0-1.2795-.20629c-1.29946 1.308-2.57161 2.64312-3.85529 3.96683a1.09886 1.09886 0 0 0-.212.84923c-.0011 3.209.03259 6.4184-.01193 9.62675a57.85758 57.85758 0 0 1-.78906 9.81086 18.23189 18.23189 0 0 1-1.57218 5.02263 6.85855 6.85855 0 0 1-4.43119 3.775c-.04975.0133-.08882.06651-.13287.10112zm24.80437-32.50467a11.37522 11.37522 0 0 0 2.63324-.35953 9.36134 9.36134 0 0 0 5.79213-3.98172 3.73569 3.73569 0 0 0 .63478-2.741 3.67089 3.67089 0 0 0-2.30018-2.65852 8.72444 8.72444 0 0 0-5.64093-.425 9.677 9.677 0 0 0-5.936 3.795c-1.37248 1.86276-1.25265 4.13576 1.08413 5.47178a7.86193 7.86193 0 0 0 3.73283.89899zm56.79891.0043a10.7164 10.7164 0 0 0 7.419-3.0608 5.02224 5.02224 0 0 0 1.66435-3.42888 3.742 3.742 0 0 0-2.79175-3.45693 8.94514 8.94514 0 0 0-4.26476-.3947 7.46909 7.46909 0 0 0-5.68653 3.37349c-.63561.99847-1.19964 2.03379-1.7791 3.06294a1.13866 1.13866 0 0 0-.07252 1.07985 3.3487 3.3487 0 0 0 .6667 1.06094A6.70319 6.70319 0 0 0 268.981 48.586zm9.86192-29.63978a88.25667 88.25667 0 0 0 .777 11.30636 35.14417 35.14417 0 0 0 .80183 4.36511.76777.76777 0 0 0 1.28807.44475 1.2567 1.2567 0 0 0 .27809-.65252 68.00962 68.00962 0 0 0 1.23035-8.66864 81.54058 81.54058 0 0 0 .43141-12.94661 12.75005 12.75005 0 0 0-.79754-4.16533 1.05385 1.05385 0 0 0-1.8834-.33448 3.50288 3.50288 0 0 0-.43983.56745 7.1847 7.1847 0 0 0-.836 1.98164 29.25506 29.25506 0 0 0-.84996 8.10224zM193.348 61.38913c0-.68159-.00493-1.36322.0018-2.04474.00421-.42406-.05372-.818-.50806-.99092-.49183-.18719-.7917.10869-1.05983.46331a37.95045 37.95045 0 0 0-4.55512 7.47431 13.59631 13.59631 0 0 0-1.40409 5.97091 4.96156 4.96156 0 0 0 2.29085 4.381 1.755 1.755 0 0 0 1.65513.1416 3.28356 3.28356 0 0 0 1.689-1.63537 11.75457 11.75457 0 0 0 1.10247-3.35142 57.7006 57.7006 0 0 0 .78785-10.40868zm-54.867-20.18776a4.70856 4.70856 0 0 0 3.38615-1.19511c.62889-.63394.6252-1.07816-.04965-1.65182a3.93937 3.93937 0 0 0-3.19662-.84694 6.24892 6.24892 0 0 0-3.7037 1.65373c-.63349.61651-.519 1.018.27339 1.40426a8.18081 8.18081 0 0 0 3.29043.63588zm-73.3332-4.80721a7.15581 7.15581 0 0 1 3.15891-2.11785c2.472-.71851 4.47753.15052 6.2024 1.89263a10.681 10.681 0 0 1 1.52532 2.00482 1.05544 1.05544 0 0 0 1.98057.02124 12.4074 12.4074 0 0 1 1.74274-2.21544 6.29683 6.29683 0 0 1 8.84061-.27822 12.325 12.325 0 0 1 3.68905 6.33906 11.14642 11.14642 0 0 0 1.99406 4.5759 3.7829 3.7829 0 0 0 5.4497.67692 5.18661 5.18661 0 0 0 1.68692-2.90928 1.05277 1.05277 0 0 0-.13187-.75134 37.58567 37.58567 0 0 1-3.59077-12.5742A76.50713 76.50713 0 0 1 97.006 19.611a23.73712 23.73712 0 0 1 1.55107-8.88 7.34736 7.34736 0 0 1 2.86414-3.53921 5.37322 5.37322 0 0 1 7.85464 2.326 14.84458 14.84458 0 0 1 1.16622 5.18706 67.52662 67.52662 0 0 1-.30423 11.7018c-.21468 2.35407-.46583 4.70237-.85808 7.035a1.03583 1.03583 0 0 0 1.45922 1.15161 15.16611 15.16611 0 0 1 5.02437-.78043 10.79719 10.79719 0 0 1 6.86089 2.33767 7.77868 7.77868 0 0 1 1.57262 10.31012 13.40751 13.40751 0 0 1-8.60219 5.978 13.00337 13.00337 0 0 1-8.64509-.58223 9.84292 9.84292 0 0 1-2.45818-1.599 1.00395 1.00395 0 0 0-1.54328-.01885c-4.02634 3.69614-9.75112 2.67634-12.82426-1.86754A15.14486 15.14486 0 0 1 88.18 43.42937a8.365 8.365 0 0 0-2.27613-4.28969 2.068 2.068 0 0 0-3.33666.12054 11.35312 11.35312 0 0 0-2.30606 4.63487 25.78874 25.78874 0 0 0-.94244 6.70058c-.01162.46723-.14656.56508-.57922.55266-1.04223-.02992-2.08589-.00974-3.129-.00931-.88533.00036-.87512.0005-.88787-.8641a22.99242 22.99242 0 0 0-1.45952-7.99284 10.0513 10.0513 0 0 0-1.65206-2.91326c-1.107-1.31552-2.18846-1.34859-3.30571-.04893a11.95537 11.95537 0 0 0-2.247 4.607 26.01852 26.01852 0 0 0-.93819 7.30335c-.0001.6526-.19174.80536-.79574.76488-.75887-.05088-1.52369-.01656-2.28592-.01248a1.07858 1.07858 0 0 1-1.15572-.67872c-.1228-.33409-.24288-.20818-.42-.0637-2.35162 1.91879-5.60066 1.62549-7.92955-.85757a12.39765 12.39765 0 0 1-1.6379-2.221c-.591-1.00678-1.38765-1.04665-2.04793-.10085a10.25023 10.25023 0 0 1-4.17627 3.7027 7.51428 7.51428 0 0 1-8.25541-1.2028 11.90632 11.90632 0 0 1-2.256-2.48293c-.63665-.89708-1.38007-.87875-1.99613.02924a9.4337 9.4337 0 0 1-8.40994 4.5865A10.52321 10.52321 0 0 1 17.93 50.3631a15.03874 15.03874 0 0 1-2.06891-1.83145 1.07243 1.07243 0 0 0-1.79228.01683 44.32269 44.32269 0 0 1-8.82634 7.10688c-.86305.528-1.42421.36387-1.90278-.54254q-.37839-.71666-.75517-1.43413a1.14646 1.14646 0 0 1 .47-1.77082 41.02924 41.02924 0 0 0 7.57249-6.09035c.475-.48811.92187-1.00344 1.38824-1.50011a1.09829 1.09829 0 0 0 .20317-1.32509 38.05075 38.05075 0 0 1-3.01529-11.87345 69.84842 69.84842 0 0 1-.51319-8.39272 24.1173 24.1173 0 0 1 1.25917-8.45043 7.59685 7.59685 0 0 1 3.21362-4.13815 6.2002 6.2002 0 0 1 8.467 2.413 14.73573 14.73573 0 0 1 1.67074 6.27566 56.86026 56.86026 0 0 1-.83611 14.4179 26.954 26.954 0 0 1-4.0464 9.81492c-.59184.92257-.59061 1.14008.1074 1.961A11.722 11.722 0 0 0 21.903 47.7737a4.78964 4.78964 0 0 0 6.16814-1.40587 11.79956 11.79956 0 0 0 2.21765-5.57159 23.60674 23.60674 0 0 0 .35737-4.6669c-.01456-.563.19652-.8058.77613-.78341.78115.03018 1.56436.00337 2.34664.00883.8225.00575 1.18849.378 1.23865 1.20817a19.0726 19.0726 0 0 0 1.96153 7.80242 8.78968 8.78968 0 0 0 2.3311 2.94723 3.26512 3.26512 0 0 0 4.35372.03154A10.18484 10.18484 0 0 0 46.78326 42.66a19.77833 19.77833 0 0 0 1.2-6.10152 1.10154 1.10154 0 0 1 1.24619-1.20378c.64185-.00512 1.28384-.00669 1.92567.00028a1.04168 1.04168 0 0 1 1.18723 1.11893 24.41807 24.41807 0 0 0 1.67242 8.25562 9.21257 9.21257 0 0 0 1.45047 2.47847c1.11371 1.29786 2.02584 1.25924 2.96-.155a13.066 13.066 0 0 0 1.71439-4.64379 29.73729 29.73729 0 0 0 .622-5.66546c.01451-1.00716.39-1.3878 1.37752-1.39.58172-.00133 1.16348-.00434 1.74515.00053.73679.0062 1.0227.23106 1.2635 1.03988zM111.99832 48.582a11.63363 11.63363 0 0 0 2.66436-.364 9.23186 9.23186 0 0 0 5.85122-4.088 3.46517 3.46517 0 0 0-1.74452-5.29286 9.52026 9.52026 0 0 0-8.38861.61151 7.53439 7.53439 0 0 0-3.73347 3.75947 3.28993 3.28993 0 0 0 1.2887 4.25749 7.55631 7.55631 0 0 0 4.06232 1.11639zM19.10665 22.29155a25.06052 25.06052 0 0 0-.26565-4.31432 8.47922 8.47922 0 0 0-1.06375-3.411 1.80742 1.80742 0 0 0-3.033-.14737 4.92637 4.92637 0 0 0-.714 1.31229 16.33014 16.33014 0 0 0-.93748 5.05379 58.45658 58.45658 0 0 0 .371 9.59242 43.90656 43.90656 0 0 0 1.16 6.55115c.13644.507.38253.88772.94212.94765a1.05807 1.05807 0 0 0 1.14239-.7699 21.04993 21.04993 0 0 0 1.30008-3.72985 55.13 55.13 0 0 0 1.09829-11.08486zm87.13808-3.51908a32.58942 32.58942 0 0 0-.12605-3.828 11.98232 11.98232 0 0 0-.63123-3.29081 1.22114 1.22114 0 0 0-2.24835-.3746 4.73866 4.73866 0 0 0-.84454 1.51159 22.57241 22.57241 0 0 0-1.07252 7.57365 75.40778 75.40778 0 0 0 .62795 9.94817 39.55568 39.55568 0 0 0 .68655 4.084 1.04224 1.04224 0 0 0 2.05448.01538c.03466-.15605.07248-.31149.10312-.46833.34175-1.74983.57346-3.51459.77028-5.28661.36502-3.28629.63278-6.57768.68031-9.88444z"/></svg>