<svg id="Layer_1" data-name="Layer 1" xmlns="http://www.w3.org/2000/svg" xmlns:xlink="http://www.w3.org/1999/xlink" viewBox="0 0 398.78 95.69707"><defs><style>.cls-1{fill:none;}.cls-2{clip-path:url(#clip-path);}.cls-3{fill:#d2e4f4;}.cls-4{fill:#43af5a;}.cls-5{fill:#666;}.cls-6{fill:#66459a;}.cls-7{fill:#fc0;}</style><clipPath id="clip-path"><path class="cls-1" d="M136.75482,28.15288,90.48071,46.44414a.16153.16153,0,0,0-.05529.26391l2.09362,2.1106a.16148.16148,0,0,0,.16547.03955l.94257-.31244a.5731.5731,0,0,1,.72253.32153l.52814,1.28266s.052.16693-.23206.16693l-.27045-.01294c-.35278-.01184-.78558-.04541-1.13684-.06366a19.04258,19.04258,0,0,1-2.07367-.29309c-.342-.06525-.67761-.15766-1.01751-.23169-.337-.08606-.66852-.19495-1.0036-.28961l-.98847-.35c-.32422-.13666-.65246-.26019-.97473-.40533-.64435-.2923-1.28046-.612-1.90961-.9657-.31476-.17615-.63012-.3515-.94024-.5462q-.46875-.27879-.93122-.5846c-.61859-.39868-1.23187-.82489-1.84948-1.25476-.61609-.43188-1.2323-.879-1.85126-1.33-.04065-.02984-.08283-.05957-.12354-.08941.69648-8.18451,2.87989-11.57654,4.59986-12.9784a4.48217,4.48217,0,0,1,1.96917-.96984,5.416,5.416,0,0,0-.07788.54956,10.27057,10.27057,0,0,0-.04553,1.54882l2.40057.18122c.05933-.20178.11005-.40216.15906-.60126.05023-.19885.12866-.38885.17938-.58331.05018-.19483.13721-.37921.20191-.56757.0614-.189.16223-.36786.23309-.553.07038-.18457.17353-.36426.258-.54553.08124-.182.18988-.36359.28229-.5448.20178-.36133.41265-.73407.64111-1.10925.23474-.379.4715-.77.71075-1.18152.24225-.41175.48212-.84039.70307-1.29541.1087-.23059.22552-.452.32422-.69361.10064-.24346.20294-.46264.29577-.73632l.14-.39472.06854-.19714.04864-.16559.09736-.3313.04827-.16571.012-.04144.03576-.139c.00861-.03851.01783-.07812.0304-.15454.00574-.03619.01379-.08759.0202-.169l.00446-.08233-.00037-.12812a1.71789,1.71789,0,0,0-.03448-.28857c-.00385-.02295-.01844-.0827-.03955-.153l.00024.00018-.00147-.00421c-.01422-.04682-.0307-.09729-.05084-.14734a8.0934,8.0934,0,0,0-2.22345-3.35437,12.27085,12.27085,0,0,0-1.16687-.96c.289.01031.57062.01941.83362.025.8006.02747,1.46869.0437,1.9361.04645.46808.01.73028.00537.73028.00537l.2887-2.9151s-.27277-.0578-.74152-.13245c-.46936-.08331-1.14007-.18316-1.94677-.28723-.10773-.01483-.22382-.02923-.33631-.04382l.26819-.0592A12.45671,12.45671,0,0,0,75.9928,4.12474a11.775,11.775,0,0,0-7.685,5.11212,11.644,11.644,0,0,0-1.91016,7.00879A12.47012,12.47012,0,0,0,65.283,17.227L64.1225,18.43108q-1.1316,1.16226-2.3017,2.29766c-1.56024,1.51453-3.164,3.00049-4.78021,4.494a116.8939,116.8939,0,0,0-9.506,9.46021,40.72672,40.72672,0,0,0-4.05066,5.59637,29.10992,29.10992,0,0,0-2.81214,6.44043,27.05253,27.05253,0,0,0-.76349,3.44855c-.10272.57294-.16156,1.17822-.22113,1.78094l-.04522.45142-.02143.4129-.04211.82453-.01056.20617-.00592.26361-.006.43805.00836.87842c.00885.28345.01965.56708.03448.85095a58.4611,58.4611,0,0,0-17.57324-2.6c-6.81732.07538-11.75189,1.51-14.27045,4.148a6.307,6.307,0,0,0-1.83856,4.64691c.18555,5.24255,6.18677,8.34387,16.09082,8.34387.17664,0,.35578-.00079.53492-.00287,6.93951-.07678,15.24737-1.91571,19.94641-4.22882.04168.12427.08795.24732.12323.37335a11.34179,11.34179,0,0,1,.28228,5.639,9.18577,9.18577,0,0,1-.97766,2.564,7.92933,7.92933,0,0,1-1.71222,2.05249A8.01684,8.01684,0,0,1,37.88531,78.545a10.04046,10.04046,0,0,1-2.75463.54565l.25866,3.50659.06128-.00439c7.20783,4.2583,8.71582,8.94025,9.61029,9.384,1.18378.58722,5.64038-1.01971,4.83576-4.69665-.473-2.16163-2.9895-3.73584-5.36225-4.76484.43622-.04248.87317-.09759,1.31067-.16046a1.88067,1.88067,0,0,0,.27106-.023c.09564-.01629.18921-.03625.28467-.053.09064-.016.18-.03412.27051-.05041.432-.07465.86425-.15351,1.29675-.24793.00836-.00177.0155-.0058.0238-.00775a48.77782,48.77782,0,0,0,17.6706-7.27344C70.661,77.873,76.096,82.41252,77.90918,86.57567a1.94052,1.94052,0,0,1-1.42407,1.50574l-.00324-.00074,1.83142,3.4076c5.81507-2.93946,9.98377-1.30591,12.83551.01367l.98584.50445c.15033.08441.01545.0022.15033.08441l.48468-.168c.83057-.52117,2.96332-2.51,2.43091-4.53356-.65674-2.496-2.296-3.44727-3.87079-3.16211-1.57489.2854-5.56646,2.79248-5.2655.38372a.09079.09079,0,0,0-.01947-.02587,35.41967,35.41967,0,0,0,.0202-8.777c-.87665-6.88636-3.9104-12.22382-8.79712-15.55274a19.67464,19.67464,0,0,0,.763-3.42157A43.1351,43.1351,0,0,0,88.926,59.35966c1.52344.1377,4.98182.17072,7.58008.1399l.35565,1.30237a.06038.06038,0,0,0,.07593.04144l1.413-.51294a2.64508,2.64508,0,0,1,.38067-.12934c.12384-.03271.18927-.0357.19294.06354a6.92009,6.92009,0,0,1-.1297.8183c-.1482.73389-.16156.84485-.30982,1.57868l-.15716.92144c-.03815.34326.14892.52509.57214.356.36554-.16473.84-.3883.86139-.3985,2.42108-1.00732,5.05609-2.46014,7.47088-3.4823a3.59677,3.59677,0,0,0,1.93934-2.77411,6.91872,6.91872,0,0,0-.0434-2.23291l3.81787.31995.01721-.02863,1.14514-3.0545.00007-.00006,3.24469.32428,1.14147-3.05219,3.24408.3252L122.8764,46.836l3.23621.32862,1.14075-3.05274,3.24041.3266,1.13874-3.05164,3.24188.32624.00024-.00006,1.137-3.04981,1.90637.19123v-.00013l.47034-2.79742.01086-.1Z"/></clipPath></defs><title>left-logo</title><g class="cls-2"><rect class="cls-3" x="4.69029" y="-44.77753" width="133.63842" height="133.63842"/><path class="cls-4" d="M99.73268,44.43726c-2.71936-2.06172-4.16664-1.06563-7.4994.09427-6.81623,2.37224-7.5,3.23971-15.56114,7.06977-2.47257,1.17478-2.45656,2.5444-4.63315.70363C60.66406,42.685,51.92472,37.59441,42.64528,28.03324c-2.34345-2.43767-4.03029-2.43767-6.56224-.37487-9.47991,7.792-19.00751,15.49507-28.547,23.20032V88.10128l76.57159-1.55373,16.98148.00108H126.738V64.15C117.65239,57.64089,108.64814,51.12518,99.73268,44.43726Z"/></g><path class="cls-5" d="M150.52733,54.43927h-3.82686V83.31118h17.50872V80.19811H150.52733Zm33.78943,13.97966a6.68893,6.68893,0,0,0-2.1813-5.10632,8.48429,8.48429,0,0,0-5.81015-1.85357,10.40769,10.40769,0,0,0-4.29352.8719,7.785,7.785,0,0,0-3.09312,2.36935,5.06178,5.06178,0,0,0-1.13977,3.10386h3.68794a2.922,2.922,0,0,1,1.32859-2.39928,5.34963,5.34963,0,0,1,3.29113-.99164,4.6213,4.6213,0,0,1,3.39092,1.14054,4.12155,4.12155,0,0,1,1.15128,3.06318v1.68548h-3.57051q-4.6205,0-7.1679,1.85434a6.065,6.065,0,0,0-2.54818,5.20534,5.80553,5.80553,0,0,0,2.03239,4.55141,7.57245,7.57245,0,0,0,5.20534,1.7937,8.18331,8.18331,0,0,0,6.10718-2.65717,7.69391,7.69391,0,0,0,.51578,2.26113h3.84682v-.31853a12.07,12.07,0,0,1-.75371-4.69954ZM180.648,77.30224a5.39868,5.39868,0,0,1-2.24041,2.31946,6.448,6.448,0,0,1-3.272.8934,4.41788,4.41788,0,0,1-2.955-.97245,3.33871,3.33871,0,0,1-1.14975-2.69631q0-3.94508,6.74191-3.94584H180.648ZM200.08091,61.459a7.81722,7.81722,0,0,0-6.42494,3.09311l-.119-2.69631H190.0678V83.31118h3.668V68.02135a6.46261,6.46261,0,0,1,2.10148-2.49828,5.29518,5.29518,0,0,1,3.133-.95173A4.25206,4.25206,0,0,1,202.2131,65.682a4.93974,4.93974,0,0,1,1.06072,3.43082V83.31041h3.66876V69.13273q-.0599-7.6737-6.86166-7.6737Zm25.9369,2.57734a7.96153,7.96153,0,0,0-12.09616.42674,12.5674,12.5674,0,0,0-2.34017,7.94156v.27708a12.70892,12.70892,0,0,0,2.35015,7.97149,7.3268,7.3268,0,0,0,6.07725,3.054,7.47029,7.47029,0,0,0,6.1279-2.69708l.17806,2.30027h3.371V52.8528H226.017Zm0,13.424a5.34962,5.34962,0,0,1-5.09635,3.1338,4.87074,4.87074,0,0,1-4.16458-2.06233,9.51722,9.51722,0,0,1-1.50664-5.71037q0-4.08476,1.50664-6.16782a4.89374,4.89374,0,0,1,4.20373-2.08152,5.39338,5.39338,0,0,1,5.05644,3.034Zm22.16912-5.07562a19.80055,19.80055,0,0,0-4.45162-1.46751,12.9043,12.9043,0,0,1-3.7977-1.28867,2.22426,2.22426,0,0,1-1.05073-2.00324,2.74618,2.74618,0,0,1,1.12978-2.27954,5.01811,5.01811,0,0,1,3.1338-.87268,4.79322,4.79322,0,0,1,3.22206,1.09065,3.31181,3.31181,0,0,1,1.27868,2.5973h3.68872a5.9836,5.9836,0,0,0-2.27034-4.81851,8.96851,8.96851,0,0,0-5.91992-1.8835,8.70909,8.70909,0,0,0-5.70039,1.8244,5.5653,5.5653,0,0,0-2.2312,4.46161,4.74191,4.74191,0,0,0,.78364,2.73623,6.289,6.289,0,0,0,2.41924,1.98251,18.47524,18.47524,0,0,0,4.42169,1.42759,10.79011,10.79011,0,0,1,3.90669,1.41838A2.70171,2.70171,0,0,1,247.86915,77.62a2.58961,2.58961,0,0,1-1.25875,2.25037,5.91372,5.91372,0,0,1-3.341.84274,5.73184,5.73184,0,0,1-3.6396-1.08067,3.79686,3.79686,0,0,1-1.47672-2.92426H234.4843a6.14018,6.14018,0,0,0,1.12058,3.53828,7.41342,7.41342,0,0,0,3.10309,2.54818,10.8067,10.8067,0,0,0,4.56061.91335,9.65076,9.65076,0,0,0,5.969-1.73537,5.49083,5.49083,0,0,0,2.30028-4.6105,5.048,5.048,0,0,0-.82278-2.92426,6.49493,6.49493,0,0,0-2.529-2.05313Zm12.38244-5.89918a5.13474,5.13474,0,0,1,4.33344-2.01245,4.90448,4.90448,0,0,1,3.4999,1.33856,5.05725,5.05725,0,0,1,1.57573,3.42009h3.47074a7.72665,7.72665,0,0,0-2.54818-5.61136,8.60393,8.60393,0,0,0-5.99819-2.16135,9.37839,9.37839,0,0,0-5.08639,1.34854,8.75732,8.75732,0,0,0-3.30188,3.787,12.91594,12.91594,0,0,0-1.15052,5.57222v.614q0,5.07639,2.5881,8.00219a8.83572,8.83572,0,0,0,6.97064,2.92426,9.01444,9.01444,0,0,0,4.13387-.99164,8.36132,8.36132,0,0,0,3.12305-2.65639,6.65523,6.65523,0,0,0,1.26948-3.50988h-3.47074a4.18689,4.18689,0,0,1-1.62563,2.97415,5.28441,5.28441,0,0,1-3.43082,1.18966,5.15929,5.15929,0,0,1-4.3626-2.00323,9.25457,9.25457,0,0,1-1.52661-5.71038v-.6946a9.45147,9.45147,0,0,1,1.53659-5.81936Zm33.3435,1.93415a6.68974,6.68974,0,0,0-2.18131-5.10709A8.48435,8.48435,0,0,0,285.9214,61.459a10.40747,10.40747,0,0,0-4.29274.8719,7.78276,7.78276,0,0,0-3.09312,2.36935,5.06259,5.06259,0,0,0-1.14053,3.10386H281.083a2.922,2.922,0,0,1,1.32935-2.39928,5.34965,5.34965,0,0,1,3.29113-.99164,4.6213,4.6213,0,0,1,3.39092,1.14054,4.12168,4.12168,0,0,1,1.15051,3.06242v1.68624h-3.569q-4.6205,0-7.16866,1.85434a6.06651,6.06651,0,0,0-2.54818,5.20534,5.8055,5.8055,0,0,0,2.03241,4.55141,7.57087,7.57087,0,0,0,5.20457,1.7937,8.18414,8.18414,0,0,0,6.108-2.65717,7.66887,7.66887,0,0,0,.51577,2.26036h3.84682v-.31776a12.06069,12.06069,0,0,1-.7537-4.69954Zm-3.668,8.88254a5.401,5.401,0,0,1-2.24118,2.31946,6.448,6.448,0,0,1-3.272.8934,4.41788,4.41788,0,0,1-2.955-.97245,3.33871,3.33871,0,0,1-1.149-2.69631q0-3.94508,6.74114-3.94584h2.87592ZM309.41993,61.459a7.55778,7.55778,0,0,0-6.22692,2.77613l-.17806,1.45829-3.35178,1.535V91.559h3.66876V81.22888a7.86484,7.86484,0,0,0,6.14787,2.47834,7.18249,7.18249,0,0,0,6.06727-2.99411,12.85764,12.85764,0,0,0,2.24117-7.89167v-.33771q0-5.1946-2.25115-8.11042A7.31759,7.31759,0,0,0,309.41993,61.459Zm3.14223,17.16181a4.95818,4.95818,0,0,1-4.19373,2.09227,5.40337,5.40337,0,0,1-5.0365-2.935V67.5263a5.39339,5.39339,0,0,1,4.99658-2.955,4.98276,4.98276,0,0,1,4.2444,2.103,9.4805,9.4805,0,0,1,1.54657,5.73033q0,4.12467-1.55729,6.21694ZM330.89445,61.459a8.57466,8.57466,0,0,0-4.74867,1.41762,9.50963,9.50963,0,0,0-3.41087,3.92664,12.87606,12.87606,0,0,0-1.21959,5.70039v.67466a10.63274,10.63274,0,0,0,2.737,7.66371,9.3715,9.3715,0,0,0,7.09881,2.86517,9.00814,9.00814,0,0,0,8.0897-4.14463l-2.2404-1.74458a8.2662,8.2662,0,0,1-2.35937,2.10224,6.38955,6.38955,0,0,1-3.29191.79285,5.8278,5.8278,0,0,1-4.51149-1.95334,7.62612,7.62612,0,0,1-1.85358-5.12552h14.53459V72.10687q0-5.13473-2.32023-7.89167A8.03515,8.03515,0,0,0,330.89445,61.459Zm5.15546,9.16115H325.30305a7.85318,7.85318,0,0,1,1.8643-4.53145,4.8937,4.8937,0,0,1,3.72708-1.61564,4.60739,4.60739,0,0,1,3.6488,1.53658,6.98842,6.98842,0,0,1,1.50666,4.33266Z"/><path class="cls-6" d="M233.31017,29.9895c-.39068.121-.77219.25873-1.14788.41321a.36533.36533,0,0,1-.49259-.41358c.26909-1.38746.474-2.85684.64811-4.42075,1.46288-13.13668.05663-16.60247-1.33182-18.15411a4.15421,4.15421,0,0,0-3.357-1.35337,4.76125,4.76125,0,0,0-3.63,1.6884c-2.49979,2.80183-3.17267,8.9093-2.05727,18.67117a32.52173,32.52173,0,0,0,3.15279,11.33044.92592.92592,0,0,1,.0824.66916,4.76678,4.76678,0,0,1-1.23434,2.26625,3.41318,3.41318,0,0,1-2.36634.91361c-2.99-.21048-3.89011-4.081-3.927-4.24568-1.09156-4.87308-3.77384-7.78268-7.17563-7.78268-2.342,0-4.37885,1.75475-5.77651,4.63741a.28679.28679,0,0,1-.51409,0c-1.39771-2.88266-3.43458-4.63741-5.77667-4.63741a5.50493,5.50493,0,0,0-4.11017,2.07786V31.5996a.9014.9014,0,0,0-.90138-.90138l-1.96817.00005a.7805.7805,0,0,0-.7825.76017c-.13241,6.53609-1.96015,10.13691-3.23784,10.13691-1.53668,0-3.83671-4.09242-3.97162-10.32048a.58473.58473,0,0,0-.58164-.57663l-2.506,0a.574.574,0,0,0-.57051.564c-.1652,6.11811-2.99779,10.33316-5.54781,10.33316-2.552,0-5.387-4.22148-5.54817-10.34716a.55947.55947,0,0,0-.55625-.55l-2.63251.00041a.47791.47791,0,0,0-.46157.46985l-.00156.22305c-.02327,4.48188-.984,7.68875-2.782,9.28061a4.24736,4.24736,0,0,1-3.08321,1.11189l-.08515-.01119c-.16572-.02043-2.51853-.36135-4.76906-3.31881a.66836.66836,0,0,1-.01379-.7769,24.19118,24.19118,0,0,0,4.05-10.64092c1.05669-8.89454.5-14.218-1.752-16.75347a5.02254,5.02254,0,0,0-4.03341-1.66808,4.8896,4.8896,0,0,0-3.73428,1.73468c-2.41542,2.72758-3.05369,8.44765-1.9512,17.48659a30.72918,30.72918,0,0,0,2.58469,9.57406.6323.6323,0,0,1-.08578.68387,34.62183,34.62183,0,0,1-7.987,6.78667.898.898,0,0,0-.324,1.188l.44757.8468.41519.78885a.90118.90118,0,0,0,1.26036.3537,37.74188,37.74188,0,0,0,8.00612-6.482.6703.6703,0,0,1,.99069.00281,10.95645,10.95645,0,0,0,6.47152,3.81344,7.7888,7.7888,0,0,0,5.90971-1.90552,9.62816,9.62816,0,0,0,2.21446-2.81747.39527.39527,0,0,1,.68912-.01507c1.66837,2.83634,4.06188,4.58554,6.76148,4.58554,2.70939,0,5.10946-1.76365,6.77845-4.61854a.4223.4223,0,0,1,.74659.02928c1.37294,2.85307,3.364,4.58926,5.65258,4.58926a4.646,4.646,0,0,0,3.24565-1.33357.90135.90135,0,0,0,.90138.90141h2.11557a.67043.67043,0,0,0,.62661-.66781l.00151-.23768c.05064-6.53088,2.45118-10.68613,4.10934-10.68613,1.6373,0,3.99822,4.05092,4.10638,10.43975l.00276.127a.338.338,0,0,0,.32343.32994h3.22243c.2859,0,.30292-.24783.30459-.37049.08822-6.4387,2.46305-10.52615,4.10768-10.52615,1.52726,0,2.948,1.937,3.61936,4.93457,1.10374,4.93153,4.58329,6.89855,7.19416,7.08208.05236.00458.1805.01374.36887.01374a7.05768,7.05768,0,0,0,4.70909-1.83636c.13523-.12372.26431-.25454.3873-.38961a.48313.48313,0,0,1,.71567-.01205,7.996,7.996,0,0,0,3.23935,2.02092,10.75039,10.75039,0,0,0,3.46425.55263,12.838,12.838,0,0,0,3.7894-.58617c5.41988-1.67927,8.64392-6.291,7.34011-10.49858C243.9969,30.28945,238.73057,28.30921,233.31017,29.9895Zm-80.67839,3.3104a.50021.50021,0,0,1-.91834-.07566,31.87045,31.87045,0,0,1-1.22169-5.82965c-1.29924-10.65415.31011-13.78032,1.06231-14.62988a1.29589,1.29589,0,0,1,1.00589-.50586,1.4484,1.4484,0,0,1,1.30887.44384c.66549.7494,2.08143,3.60408.85771,13.90336A19.57009,19.57009,0,0,1,152.63178,33.2999Zm76.06412-8.13518a38.99508,38.99508,0,0,1-1.15469,6.45512.48285.48285,0,0,1-.93147-.00523,37.20054,37.20054,0,0,1-1.04711-5.608c-1.32922-11.62977.36528-14.94508,1.15558-15.83072a1.15012,1.15012,0,0,1,.9108-.47078c.51658,0,.543.02949.6414.13931C228.715,10.34166,230.05994,12.91521,228.6959,25.16472ZM236.882,41.515a8.30214,8.30214,0,0,1-5,.06457,3.66883,3.66883,0,0,1-2.43088-2.1704,3.668,3.668,0,0,1,.77761-3.1643A8.30645,8.30645,0,0,1,234.389,33.47a9.20344,9.20344,0,0,1,2.71059-.41894c2.302,0,4.22989.94208,4.7205,2.52475C242.49582,37.7564,240.23467,40.47587,236.882,41.515Z"/><path class="cls-6" d="M390.49619,37.92475l-1.875-.4199a.86988.86988,0,0,0-1.01214.552c-.41607,1.17089-1.48494,3.34657-3.72064,3.51719l-.04424.00192a3.43785,3.43785,0,0,1-2.27182-.88141,5.70632,5.70632,0,0,1-1.51618-3.60588.943.943,0,0,1,.11336-.56077c1.8546-3.40526,2.60431-7.38906,3.106-12.20554,1.47454-14.15452.02561-17.78707-1.40167-19.37075a4.0799,4.0799,0,0,0-3.28843-1.32643,4.64233,4.64233,0,0,0-3.52473,1.64164c-2.58494,2.87605-3.293,9.407-2.16377,19.9666.13242,1.2397.305,2.42227.5106,3.55641a.65986.65986,0,0,1-.77927.75915,11.42486,11.42486,0,0,0-2.3273-.16952v-.002c-.0507,0-.09588.00573-.14616.00622-.14709.00573-.29313.00776-.44178.019a10.28156,10.28156,0,0,0-4.615,1.21458,11.37347,11.37347,0,0,0-4.31535,3.4198,8.138,8.138,0,0,0-1.4518,3.08953,6.24582,6.24582,0,0,1-.78463,2.01121c-1.02171,1.60757-2.03031,2.43686-3.8898,2.43686a2.0068,2.0068,0,0,1-1.62871-.67007c-1.34473-1.50488-1.30642-5.08406-1.18-6.33523a3.84833,3.84833,0,0,0-.80176-3.48c-1.77174-2.00819-5.36923-1.78907-8.42938-1.50184-.03727-.04726-.07641-.09454-.1169-.14081a3.69746,3.69746,0,0,0-2.90629-1.23238,2.71481,2.71481,0,0,0-2.07383.82973,2.48426,2.48426,0,0,0-.64613,1.8999,2.706,2.706,0,0,0,2.39767,2.33816c.07787.02457.158.04546.24114.063a.40395.40395,0,0,1,.32354.39271c-.014,3.11584-.70906,5.41633-2.02818,6.6859a4.10992,4.10992,0,0,1-2.9319,1.16069l-.06766-.0056c-3.8288-.25368-4.02274-3.89539-4.02274-4.62293V30.67623a.87536.87536,0,0,0-.87535-.87536h-1.89363a.87525.87525,0,0,0-.87525.87525,6.39691,6.39691,0,0,0-1.40906-.74468,12.472,12.472,0,0,0-13.17424,4.01079l-.472.55968c-.70286.72555-1.5157,1.5524-2.38736,2.439q-.61053.62083-1.24818,1.27022a.83489.83489,0,0,1-1.43087-.58419v-6.561a.67073.67073,0,0,0-.6707-.6707H303.8206c-.5146,0-.47494.57225-.47494.57225-.095,6.25036-2.96927,10.57758-5.55323,10.57758-2.57167,0-5.52772-4.28545-5.5526-10.48858-.0001-.02623-.00213-.02428-.00213-.05057,0-.63863-.6898-.61068-.6898-.61068h-2.39528a.87156.87156,0,0,0-.87369.84024c-.17233,5.78958-2.11968,10.0564-4.66439,10.0564-3.51359,0-4.45359-5.508-4.69738-7.96722a4.11944,4.11944,0,0,0-1.72224-3.49477,7.071,7.071,0,0,0-5.16463-.73657.8381.8381,0,0,1-.78828-.31422q-.04059-.05172-.08364-.10178a2.78374,2.78374,0,0,0-2.14039-.97612c-1.80354,0-2.90094.64007-3.45359,2.01428a3.03473,3.03473,0,0,0,.65379,3.10231,2.86309,2.86309,0,0,0,1.2335.77435.5239.5239,0,0,1,.34107.70524,12.07294,12.07294,0,0,1-10.89846,7.40225c-4.1045,0-5.56837-2.16913-5.65774-3.26715.018-.13636.09442-.46773.39026-.39973a9.84333,9.84333,0,0,0,5.04966,1.24737l.27148.00763c3.26345,0,6.25083-2.10428,6.65879-4.69107a4.56478,4.56478,0,0,0-1.63932-4.16941l-.50727-.38588L261.3927,29.99c-3.13156-2.13785-7.953-1.32846-11.10692,1.9848a9.27975,9.27975,0,0,0-2.70221,6.34949c0,2.91467,2.8888,7.01953,9.27309,7.019.06662.00151.134.002.20257.002a15.82463,15.82463,0,0,0,14.88768-11.87482l.05111-.23489c.01624-.10878.03607-.25775.05361-.43672,1.54173-.3203,2.63782-.27505,3.0489.01322.04268.03.17312.12151.17312.60908l.00838.17387c.32665,3.40986,1.7924,11.341,8.33251,11.341,2.51031,0,4.60511-1.48661,6.06487-4.07621a.87519.87519,0,0,1,1.50634.0001c1.65993,2.68493,3.98937,4.32928,6.60668,4.32928a7.25393,7.25393,0,0,0,5.448-2.75075.07612.07612,0,0,1,.13475.04861l0,.66037a.87846.87846,0,0,1-.23432.59531,63.263,63.263,0,0,0-4.54359,5.34745c-6.49515,8.95658-5.84719,14.28977-4.15978,17.18614a5.89027,5.89027,0,0,0,5.10488,3.02619,3.23322,3.23322,0,0,0,.34925-.01882c4.51464-.50739,7.36425-3.45121,7.12764-18.50357V45.28487a.87577.87577,0,0,1,.24026-.60342c1.01526-1.06978,2.054-2.14121,3.05379-3.164a.8809.8809,0,0,1,1.39366.16174,7.50053,7.50053,0,0,0,4.20225,3.323,10.74967,10.74967,0,0,0,3.4643.55265,12.83789,12.83789,0,0,0,3.78935-.5862,12.42551,12.42551,0,0,0,4.61484-2.5749.86591.86591,0,0,1,1.254.07784,7.53156,7.53156,0,0,0,5.51,2.74161c.08338.00711.23641.01728.44491.01728a7.763,7.763,0,0,0,5.26732-2.1043c2.084-1.95068,3.16607-5.01655,3.224-9.12532a.90793.90793,0,0,1,.85458-.88589,9.21875,9.21875,0,0,1,3.73038.21126c.00843.00427.03316.01361.04107.018a.3043.3043,0,0,1,.18238.31844c-.0024.06433-.0076.06691-.02311.21316l-.02707.19414c-.073.62789-.63468,6.22086,2.06716,9.255a5.65727,5.65727,0,0,0,4.353,1.89382A7.30367,7.30367,0,0,0,359.95,43.16113a.85461.85461,0,0,1,1.17843.00562,8.06012,8.06012,0,0,0,3.0526,1.83545,10.74915,10.74915,0,0,0,3.46425.55265,12.83854,12.83854,0,0,0,3.78945-.5862,12.22574,12.22574,0,0,0,5.209-3.12635.814.814,0,0,1,1.26832.11443,7.28007,7.28007,0,0,0,1.19983,1.42621,7.06011,7.06011,0,0,0,4.70061,1.83789c.17874,0,.29876-.00864.34425-.01273,2.476-.17431,5.68486-1.91091,6.9892-6.18252A.86494.86494,0,0,0,390.49619,37.92475ZM253.34483,34.41569a1.9365,1.9365,0,0,1,.57722-.78893c1.913-1.37091,4.29984-1.61775,5.662-.43736l.09582.08187a.92771.92771,0,0,1,.32743.757c-.08723.55214-1.33483,1.605-3.03417,1.61523l-.18993-.00612a6.51762,6.51762,0,0,1-3.2141-.70453A.527.527,0,0,1,253.34483,34.41569Zm48.62831,29.707a2.48646,2.48646,0,0,1-4.46609.17626q-.03435-.0648-.06719-.13239c-.78953-1.62743-1.30585-5.472,4.10767-12.93689.19061-.26285.67492-.89238.9032-1.18216a.462.462,0,0,1,.76168-.05519,1.54368,1.54368,0,0,1,.16281.81638C303.49545,58.4607,302.82715,62.23833,301.97314,64.12268Zm24.27121-25.40944a8.81354,8.81354,0,0,1-9.16046,2.83943,3.66906,3.66906,0,0,1-2.431-2.17037,3.40076,3.40076,0,0,1,.56452-2.86005c.02576-.03953.07287-.0984.1-.13689a7.05614,7.05614,0,0,1,1.22938-1.30709c.02894-.02644.05247-.05452.08307-.07906a9.01084,9.01084,0,0,1,2.96089-1.5561,9.23794,9.23794,0,0,1,2.71236-.41842,7.12262,7.12262,0,0,1,2.2878.35435,3.66692,3.66692,0,0,1,2.431,2.16988A3.66849,3.66849,0,0,1,326.24435,38.71324Zm44.11131,2.77487a8.3023,8.3023,0,0,1-5,.06456,3.66882,3.66882,0,0,1-2.43088-2.17037,2.55078,2.55078,0,0,1-.085-.42l-.00188-.02665c-.00593-.05868,0-.32278,0-.32278.18155-2.20577,1.93038-3.66089,3.71523-4.64562l.12617-.06837a9.45236,9.45236,0,0,1,1.18338-.45576,9.204,9.204,0,0,1,2.71059-.41894c2.03916,0,3.78185.7407,4.49491,2.00947a.25837.25837,0,0,1,.01728.03739c.08037.215.158.4344.242.64332a.23318.23318,0,0,1,.01166.03717C375.82191,37.8954,373.60589,40.48065,370.35566,41.48811Zm8.22223-10.94172a.56231.56231,0,0,1-1.08907-.00973,43.14684,43.14684,0,0,1-.96852-5.69068c-1.35847-12.70557.42222-16.22119,1.25063-17.14344a1.04191,1.04191,0,0,1,.81445-.43315c.47156,0,.49269.02337.58139.122.46437.515,1.872,3.23193.48426,16.55368A46.29944,46.29944,0,0,1,378.57789,30.54639Z"/><path class="cls-7" d="M78.37083,31.97232a7.38309,7.38309,0,1,0-.07351.00036q.03675,0,.0735-.00036Z"/><path class="cls-6" d="M81.47191,20.53181c-.04589-.77408-1.06137-1.36747-2.26812-1.32536s-2.14787.70375-2.102,1.47784,1.06132,1.36747,2.26812,1.32535S81.5178,21.3059,81.47191,20.53181Z"/><path class="cls-6" d="M22.00724,70.81412c.17669,0,.3558-.00081.53492-.00284,6.93951-.07679,15.24737-1.91574,19.94642-4.22884.04169.12428.088.24732.12324.37337a11.3425,11.3425,0,0,1,.2823,5.63895,9.1859,9.1859,0,0,1-.97769,2.564,7.92944,7.92944,0,0,1-1.71218,2.05246A8.01727,8.01727,0,0,1,37.88532,78.545a10.041,10.041,0,0,1-2.75461.54568l.25864,3.50659.06129-.00444c7.20778,4.25836,8.71578,8.94029,9.61024,9.384,1.18381.58724,5.64042-1.01968,4.83577-4.69662-.473-2.16164-2.9895-3.73582-5.36222-4.76485.43619-.04247.87314-.09758,1.31064-.16042a1.89006,1.89006,0,0,0,.27106-.02305c.09568-.01631.18924-.03627.28468-.053.09067-.016.18007-.0341.27049-.05043.432-.07462.86428-.15349,1.29677-.24788.00836-.00183.0155-.00585.02381-.00778a48.77844,48.77844,0,0,0,17.67059-7.27343C70.66094,77.873,76.096,82.41251,77.90915,86.57569a1.94051,1.94051,0,0,1-1.42406,1.50574l-.00319-.00074,1.83137,3.40756c5.81508-2.93946,9.98378-1.30589,12.83554.01367l.98585.50447c.15034.08442.0154.00218.15034.08442l.48467-.168c.83053-.52119,2.96331-2.51,2.43087-4.53356-.65674-2.496-2.296-3.44729-3.87079-3.16213-1.57486.28539-5.56646,2.7925-5.26547.38373a.09146.09146,0,0,0-.0195-.02591,35.41808,35.41808,0,0,0,.02021-8.777c-.87663-6.88633-3.91041-12.22378-8.79713-15.55269a19.67194,19.67194,0,0,0,.763-3.42161A43.135,43.135,0,0,0,88.926,59.35963c1.52344.13773,4.9818.17074,7.58009.13994l.35565,1.30239a.06032.06032,0,0,0,.07593.04138l1.413-.51293a2.64245,2.64245,0,0,1,.38067-.12932c.12385-.0327.18925-.03569.19289.06352a6.92263,6.92263,0,0,1-.12967.81833c-.14817.73389-.16159.84482-.30981,1.57868l-.15717.92142c-.03815.3433.14889.5251.57217.356.36552-.16471.84-.38827.86135-.39847,2.4211-1.00735,5.05612-2.46013,7.47089-3.4823a3.59681,3.59681,0,0,0,1.93932-2.77411,6.91878,6.91878,0,0,0-.04336-2.23292l3.81786.32.01722-.02867,1.14515-3.05449.00005-.00005,3.24465.32429,1.14151-3.05218,3.24409.32515,1.13791-3.04929,3.23624.32862,1.14075-3.05272v-.00005l3.24039.3266,1.13872-3.05157,3.24191.32621.0002-.00005,1.137-3.04985,1.90635.19122v-.00008l.47038-2.79744.01084-.1-1.64436-7.804L90.48071,46.44416a.16149.16149,0,0,0-.05528.2639L92.519,48.81865a.16148.16148,0,0,0,.16545.03956l.9426-.31243a.573.573,0,0,1,.72249.32151l.52813,1.28266s.052.16695-.232.16695l-.2705-.01294c-.35276-.01185-.78555-.04541-1.13684-.06367a19.05639,19.05639,0,0,1-2.07366-.29309c-.342-.06527-.67761-.15766-1.01751-.23172-.33705-.086-.66854-.19492-1.00357-.28962l-.98848-.34995c-.32424-.13664-.65248-.26021-.97475-.40534-.64433-.2923-1.28045-.612-1.90959-.96571-.31477-.1761-.63014-.35149-.94025-.54616q-.46873-.27882-.93124-.58461c-.61855-.3987-1.23188-.82491-1.84946-1.2548-.61612-.43185-1.23228-.879-1.85129-1.32994-.04062-.02984-.08277-.05954-.12349-.08938.69645-8.18454,2.87988-11.57659,4.59986-12.97839a4.48192,4.48192,0,0,1,1.96916-.96988,5.42294,5.42294,0,0,0-.07791.54958,10.2692,10.2692,0,0,0-.04548,1.54884l2.40053.18117c.05932-.20176.11007-.40212.15906-.60122.05025-.19887.12866-.38885.17942-.58334.05015-.19485.13717-.37921.20186-.56754.06144-.189.16224-.36786.23311-.55308.07036-.18456.17354-.36423.258-.54552.08125-.18193.1899-.36355.28229-.5448.20176-.36134.41264-.73406.64114-1.10926.23474-.37895.47145-.77.71074-1.18153.24223-.41169.48214-.84039.703-1.29537.10871-.2306.22552-.452.32424-.69364.10065-.24347.20293-.46263.29578-.73629l.14-.39471.06853-.19715.04868-.16561.09731-.33126.04827-.16574.012-.04144.03576-.139c.00861-.03847.01778-.07808.03039-.15449.00573-.03622.01378-.08764.02022-.169l.00445-.08234-.0004-.1281a1.71076,1.71076,0,0,0-.0345-.28856c-.0038-.02295-.01839-.08269-.03951-.153l.0002.00018-.00146-.00423c-.01419-.0468-.0307-.09726-.05081-.1473a8.09328,8.09328,0,0,0-2.22345-3.35439,12.26435,12.26435,0,0,0-1.16688-.95994c.289.01031.57063.01938.83363.025.8006.02743,1.46868.04372,1.93607.04645.46811.01.7303.00535.7303.00535l.28868-2.91506s-.27273-.05785-.74149-.13249c-.46937-.0833-1.14009-.18317-1.94677-.28721-.10774-.01482-.22384-.02923-.33629-.04385l.26816-.05919A12.4567,12.4567,0,0,0,75.99277,4.12475a11.77482,11.77482,0,0,0-7.68495,5.11209,11.64432,11.64432,0,0,0-1.91019,7.00879A12.47808,12.47808,0,0,0,65.283,17.227l-1.16051,1.204q-1.1316,1.16226-2.3017,2.29768c-1.56027,1.51453-3.164,3.00049-4.7802,4.494A116.89078,116.89078,0,0,0,47.53456,34.683a40.72275,40.72275,0,0,0-4.05066,5.59637,29.1095,29.1095,0,0,0-2.81216,6.44044,27.04875,27.04875,0,0,0-.76347,3.44853c-.10273.57293-.16159,1.17818-.22116,1.781l-.04518.45139-.02143.41289-.04214.82456-.01054.20614-.00593.26363-.006.438.00836.87845c.00887.28342.01966.56709.03445.85095a58.45987,58.45987,0,0,0-17.57319-2.6c-6.81734.07537-11.75193,1.50992-14.27049,4.148a6.307,6.307,0,0,0-1.83857,4.64688C6.102,67.71282,12.1032,70.81412,22.00724,70.81412Zm42.73174.0293a46.18452,46.18452,0,0,0-.93377-13.20565,8.74184,8.74184,0,0,1-.06605-4.10466,1.47858,1.47858,0,0,1,1.841-.88666c3.502.974,6.33956,1.97683,8.84925,2.88851C74.01126,61.23247,70.42905,66.62481,64.739,70.84342Zm17.71067,14.026-1.18223.24738C78.89819,79.727,72.48943,74.842,68.75865,72.34258a28.8326,28.8326,0,0,0,7.13373-8.75483C84.24618,69.891,82.8639,82.19867,82.44965,84.86945Zm23.09568-40.614,28.76488-11.48926.29491,1.57736a.49839.49839,0,0,1-.58334.62177.3447.3447,0,0,0-.41324.19438l-1.05474,2.827-3.241-.32541-1.13761,3.0495v0l-3.24049-.32654-.0001.00007-1.13913,3.0511-3.23821-.32754-1.13857,3.05156v0l-3.24242-.32386-1.14146,3.05211v0l-3.2416-.32488L110.7835,51.2546a.50643.50643,0,0,1-.52412.32614l-.26392-.02611c-.19745-.01953-1.40714-.13332-1.46777-.32227l-2.98236-6.97692Zm-6.559,3.61246a2.482,2.482,0,0,1,2.1121-1.33734,2.07957,2.07957,0,0,1,2.13115,1.32815c.07158.05544,2.69824,6.69352,2.64936,6.59284a2.04093,2.04093,0,0,1-.28256,2.4151,6.38091,6.38091,0,0,1-2.19751,1.15635c-.367.14982-.37667-.07165-.50685-.44614-.04012-.11542-.153-.43212-.29653-.84085.04447-.07993.08981-.15944.13241-.24028a7.5792,7.5792,0,0,0,.76063-2.48832,8.61079,8.61079,0,0,0,.05238-1.68108c-.01677-.27787-.04762-.55374-.09194-.83143-.02132-.139-.04716-.27766-.0777-.42048l-.04944-.21736c-.02123-.08331-.03288-.13429-.07284-.26706l-.00289-.00952a1.66317,1.66317,0,0,0-.55346-.81939,7.17214,7.17214,0,0,0-.97014-.6729,5.0226,5.0226,0,0,0-.55518-.28131,5.71878,5.71878,0,0,0-.60076-.22765,5.5108,5.5108,0,0,0-.64246-.15308,5.01993,5.01993,0,0,0-.65329-.0738l-.10212-.00772C99.07747,48.30358,98.91392,48.00234,98.98634,47.86788ZM71.24581,11.16862a8.20852,8.20852,0,0,1,2.13373-2.197l.26381-.04823a3.79645,3.79645,0,0,1,.46967-.05323A5.249,5.249,0,0,1,74.6721,8.833c.19629.0043.40792-.00292.62473.00714.2128.02457.43867.03781.6652.06929.22065.04838.4565.07426.68014.1389a6.40426,6.40426,0,0,1,.66935.20621,5.48856,5.48856,0,0,1,.6338.2625c.20788.08715.38913.20533.57447.30064.17157.11275.34588.20978.48867.31975a6.31361,6.31361,0,0,1,.67675.54609l.15764.1511a.64729.64729,0,0,1,.05688.06059l1.41368-.98428c-.00309-.00349-.009-.021-.05952-.099-.049-.07874-.11185-.17147-.19036-.28541a8.15013,8.15013,0,0,0-.71515-.8776c-.15424-.17679-.34146-.344-.53339-.53291-.2047-.17053-.41152-.36875-.65142-.538-.05431-.04158-.11246-.0818-.16848-.12288a8.94027,8.94027,0,0,1,7.69245,5.83739c-.6957-.05291-1.40993-.09939-2.12634-.14847-1.08381-.06557-2.16909-.13447-3.1902-.16038-1.0212-.0311-1.97589-.05-2.79878-.05409l-1.1374.01306c-.343.00168-.61723.01614-.85577.02136l-.73875.02978.00021.01393c-.14295.0042-.2859.00233-.4288.01165a17.40969,17.40969,0,0,0-1.83168.19614,17.1797,17.1797,0,0,0-3.54315.989l-.00912.00393A8.1639,8.1639,0,0,1,71.24581,11.16862ZM43.13919,54.17529l.00177-.14911L43.1513,53.82l.04143-.82458.021-.41165.03977-.36986c.05111-.49256.09457-.98374.18686-1.49513A23.48676,23.48676,0,0,1,44.1,47.72292a25.53464,25.53464,0,0,1,2.45833-5.63612,37.19523,37.19523,0,0,1,3.68438-5.09187,113.93192,113.93192,0,0,1,9.2084-9.16661c1.61635-1.49632,3.24181-3.00459,4.84-4.55856q1.19658-1.16883,2.37065-2.37055l.18925-.19679c.0539.07216.11184.14713.176.22488a10.116,10.116,0,0,0,1.04172,1.09759,9.8522,9.8522,0,0,0,1.53555,1.16724,11.65517,11.65517,0,0,0,1.9796.98516,10.63378,10.63378,0,0,0,1.11192.37878,11.44643,11.44643,0,0,0,1.16744.29607,19.55134,19.55134,0,0,0,2.43579.35428c.82472.05707,1.65652.087,2.48017.06477q.75648-.01559,1.50055-.06884l-.0192-1.53376c-.48041-.03123-.96184-.0739-1.44093-.12978-.77036-.0837-1.52866-.21667-2.263-.36778a17.33482,17.33482,0,0,1-2.08632-.59881,9.08676,9.08676,0,0,1-.93838-.37839,8.1965,8.1965,0,0,1-.84857-.42424,8.70022,8.70022,0,0,1-1.3849-.94114,7.33684,7.33684,0,0,1-1.54093-1.781c-.14608-.23676-.22733-.44355-.29987-.57161l-.02148-.04161.27146-.15926.318-.17479a13.6468,13.6468,0,0,1,4.12908-1.39906,13.88775,13.88775,0,0,1,1.45015-.15574q.36426-.02506.73029-.02039l.18287-.00114c.01965-.00048.0851.00011.06716-.00126l.10314.00337.41263.01337a21.58187,21.58187,0,0,1,3.00611.357,20.37733,20.37733,0,0,1,5.72314,1.94745,10.91392,10.91392,0,0,1,2.31949,1.6185,5.079,5.079,0,0,1,1.16582,1.54112l-.02294.08012-.04752.16594-.0466.12831-.091.256c-.0504.16428-.144.36279-.21452.54649-.06889.18743-.16372.37566-.24558.564-.07957.1875-.18463.37991-.27465.57037-.089.19181-.19436.39154-.2907.58714-.20384.39549-.416.8082-.624,1.23646-.04321.09-.08647.18292-.13.2739a7.19412,7.19412,0,0,0-5.19187,1.63914c-3.0626,2.36994-5.02314,6.91441-5.84861,13.51251-.13287-.09115-.26179-.18441-.39542-.27508-.65324-.44166-1.32386-.86268-1.99965-1.27921l-1.02834-.60621-1.05-.57473c-.71023-.36735-1.42811-.71958-2.15972-1.04489-.73581-.316-1.47745-.61743-2.23352-.87931-.37394-.14077-.7579-.25444-1.14055-.36918-.38062-.11747-.76251-.23263-1.15929-.32822-.38827-.09434-.79244-.21525-1.1647-.28536l-1.13609-.22207-.47479,1.7616c.729.25484,1.472.49849,2.137.76917.34116.12509.68252.27361,1.02348.42451.34177.14606.68106.29605,1.01391.46121.674.309,1.33045.65467,1.97959,1.01036.6495.35583,1.28562.7365,1.914,1.13009l.93362.60776.92147.63151.909.65641.90135.675q.89895.68475,1.79217,1.39476L77.672,46.656c1.2145.95679,2.44825,1.93448,3.77455,2.83961q.49214.34416,1.00758.66971c.33675.22316.6884.43216,1.0403.641.70273.41889,1.44108.79576,2.19366,1.15062.37727.17565.76737.33088,1.15113.49609.39278.148.7893.28835,1.18679.42492.40478.11744.80622.24687,1.2147.35147.41152.09227.81955.20419,1.23533.27407a22.63568,22.63568,0,0,0,2.50245.31023c.41765.0154.83616.0447,1.25274.04605l.52119-.01289a3.16918,3.16918,0,0,0,1.37062-.3496l.29557-.15194a3.5522,3.5522,0,0,0,.55883-.38748c.07284-.07583.15024-.15063.22911-.22314a4.44026,4.44026,0,0,1,.49317-.39032,2.74969,2.74969,0,0,1,.9741-.44141,1.65947,1.65947,0,0,1,.85419.03541,2.21073,2.21073,0,0,1,.22025.08543,1.69239,1.69239,0,0,1,.2284.11633l.01094.00694c.01885.1336.03662.26845.04443.4043a5.09888,5.09888,0,0,1-.03,1.00094,3.97161,3.97161,0,0,1-.64226,1.74367,3.40822,3.40822,0,0,1-.28.36788,3.73962,3.73962,0,0,1-.329.34022,4.87581,4.87581,0,0,1-.37555.31287l-.0076.0054c-.08865.06324-.17851.12615-.271.187-.0468.0308-.0928.06226-.14279.09055a5.24726,5.24726,0,0,1-.45868.2558c-.154.08543-.32971.14936-.49257.22722l-.4256.16143c-.077-.38543-.14467-.8163-.20348-1.25976-2.49258.02733-5.79122-.00534-7.12932-.12674-4.88313-.44454-8.34468-1.70686-12.72694-3.30472-2.786-1.01634-5.944-2.16762-9.99441-3.29459A4.952,4.952,0,0,0,60.3773,52.5038a12.254,12.254,0,0,0-.02472,5.80019c1.36535,7.07289,1.39306,12.63479.08115,15.28594A47.35389,47.35389,0,0,1,47.19467,78.3448l-.02006.00231c-.16939.037-.33858.06719-.50787.10072q-.35909.06957-.72142.13391-1.20417.20363-2.399.28823a11.64966,11.64966,0,0,0,1.43323-1.93651,12.72747,12.72747,0,0,0,1.38014-3.57794,14.88753,14.88753,0,0,0-.33173-7.41584c-.08369-.2977-.18059-.59046-.28777-.8794-.09807-.29266-.2164-.57655-.33509-.86032-.1122-.287-.25-.56121-.38047-.83917l-.353-.73739c-.1817-.41671-.375-.86812-.53111-1.34113-.16311-.46616-.30034-.94436-.42019-1.429a19.85646,19.85646,0,0,1-.48988-2.985c-.05-.50678-.07147-1.01961-.08844-1.53285l-.008-.77263ZM10.445,60.39137c1.75873-1.84262,5.9947-2.93514,11.62184-2.99755,6.17726-.07,13.77048,1.23127,18.12113,3.06548.0199.08475.03657.16987.05749.25447.14568.58349.31406,1.1641.51536,1.73677.08115.24153.17405.48183.26974.723-3.7476,1.925-11.55539,3.84227-18.5297,3.91929-6.327.06281-12.74842-1.37336-12.86837-4.75426A2.60447,2.60447,0,0,1,10.445,60.39137Z"/></svg>