<svg id="Layer_1" data-name="Layer 1" xmlns="http://www.w3.org/2000/svg" viewBox="0 0 398.78 114"><defs><style>.cls-1{fill:#666;}.cls-2{fill:#66459a;}.cls-3{fill:#d2e4f4;}.cls-4{fill:#43af5a;}.cls-5{fill:#fc0;}</style></defs><title>left-logo</title><path class="cls-1" d="M150.52733,65.43694h-3.82686V94.30885h17.50872V91.19577H150.52733ZM184.31676,79.4166a6.689,6.689,0,0,0-2.1813-5.10633,8.48434,8.48434,0,0,0-5.81015-1.85357,10.40754,10.40754,0,0,0-4.29352.87191,7.785,7.785,0,0,0-3.09312,2.36934,5.0618,5.0618,0,0,0-1.13977,3.10386h3.68794a2.92193,2.92193,0,0,1,1.32859-2.39927,5.34963,5.34963,0,0,1,3.29113-.99164,4.62126,4.62126,0,0,1,3.39092,1.14054,4.12154,4.12154,0,0,1,1.15128,3.06318V81.3001h-3.57051q-4.6205,0-7.1679,1.85433a6.065,6.065,0,0,0-2.54818,5.20534,5.80552,5.80552,0,0,0,2.03239,4.55141,7.57236,7.57236,0,0,0,5.20534,1.7937,8.18334,8.18334,0,0,0,6.10718-2.65716,7.69384,7.69384,0,0,0,.51578,2.26112h3.84682v-.31852a12.07,12.07,0,0,1-.75371-4.69955ZM180.648,88.29991a5.39868,5.39868,0,0,1-2.24041,2.31946,6.4479,6.4479,0,0,1-3.272.89339,4.41782,4.41782,0,0,1-2.955-.97245,3.33869,3.33869,0,0,1-1.14975-2.69631q0-3.94506,6.74191-3.94583H180.648ZM200.08091,72.4567a7.8172,7.8172,0,0,0-6.42494,3.09312l-.119-2.69631H190.0678V94.30885h3.668V79.019a6.46271,6.46271,0,0,1,2.10148-2.49829,5.2951,5.2951,0,0,1,3.133-.95172,4.252,4.252,0,0,1,3.24279,1.1106,4.93978,4.93978,0,0,1,1.06072,3.43083V94.30808h3.66876V80.13039q-.0599-7.6737-6.86166-7.67369Zm25.9369,2.57735a7.96153,7.96153,0,0,0-12.09616.42674,12.56738,12.56738,0,0,0-2.34017,7.94156v.27707a12.709,12.709,0,0,0,2.35015,7.9715,7.32676,7.32676,0,0,0,6.07725,3.054,7.47031,7.47031,0,0,0,6.1279-2.69707l.17806,2.30027h3.371V63.85046H226.017Zm0,13.424a5.34963,5.34963,0,0,1-5.09635,3.1338,4.87072,4.87072,0,0,1-4.16458-2.06234,9.5172,9.5172,0,0,1-1.50664-5.71037q0-4.08476,1.50664-6.16781a4.89371,4.89371,0,0,1,4.20373-2.08152,5.39336,5.39336,0,0,1,5.05644,3.034Zm22.16912-5.07563a19.801,19.801,0,0,0-4.45162-1.4675,12.90432,12.90432,0,0,1-3.7977-1.28868,2.22425,2.22425,0,0,1-1.05073-2.00323,2.7462,2.7462,0,0,1,1.12978-2.27955,5.01811,5.01811,0,0,1,3.1338-.87267,4.79316,4.79316,0,0,1,3.22206,1.09065,3.31181,3.31181,0,0,1,1.27868,2.5973h3.68872a5.9836,5.9836,0,0,0-2.27034-4.81851,8.96846,8.96846,0,0,0-5.91992-1.8835,8.70909,8.70909,0,0,0-5.70039,1.8244,5.5653,5.5653,0,0,0-2.2312,4.46161,4.74188,4.74188,0,0,0,.78364,2.73622,6.28885,6.28885,0,0,0,2.41924,1.98251,18.47481,18.47481,0,0,0,4.42169,1.4276,10.79011,10.79011,0,0,1,3.90669,1.41838,2.70169,2.70169,0,0,1,1.11982,2.31024A2.58962,2.58962,0,0,1,246.6104,90.868a5.91372,5.91372,0,0,1-3.341.84274,5.73184,5.73184,0,0,1-3.6396-1.08067,3.79686,3.79686,0,0,1-1.47672-2.92426H234.4843a6.14022,6.14022,0,0,0,1.12058,3.53828,7.41349,7.41349,0,0,0,3.10309,2.54818,10.80685,10.80685,0,0,0,4.56061.91335,9.65083,9.65083,0,0,0,5.969-1.73537,5.49084,5.49084,0,0,0,2.30028-4.61051,5.04806,5.04806,0,0,0-.82278-2.92426,6.49482,6.49482,0,0,0-2.529-2.05312Zm12.38244-5.89918a5.13475,5.13475,0,0,1,4.33344-2.01244,4.90444,4.90444,0,0,1,3.4999,1.33856,5.05724,5.05724,0,0,1,1.57573,3.42008h3.47074a7.72668,7.72668,0,0,0-2.54818-5.61136,8.60392,8.60392,0,0,0-5.99819-2.16134,9.37839,9.37839,0,0,0-5.08639,1.34854,8.75732,8.75732,0,0,0-3.30188,3.787,12.91592,12.91592,0,0,0-1.15052,5.57221v.614q0,5.07639,2.5881,8.0022a8.83572,8.83572,0,0,0,6.97064,2.92426,9.01457,9.01457,0,0,0,4.13387-.99164,8.36144,8.36144,0,0,0,3.12305-2.6564,6.65523,6.65523,0,0,0,1.26948-3.50988h-3.47074a4.18689,4.18689,0,0,1-1.62563,2.97416A5.28441,5.28441,0,0,1,264.922,91.7108a5.15932,5.15932,0,0,1-4.3626-2.00324,9.25456,9.25456,0,0,1-1.52661-5.71037v-.69461a9.45149,9.45149,0,0,1,1.53659-5.81936Zm33.3435,1.93416a6.68977,6.68977,0,0,0-2.18131-5.1071,8.4844,8.4844,0,0,0-5.81016-1.85357,10.40764,10.40764,0,0,0-4.29274.87191,7.78265,7.78265,0,0,0-3.09312,2.36934,5.06259,5.06259,0,0,0-1.14053,3.10386H281.083a2.922,2.922,0,0,1,1.32935-2.39927,5.34965,5.34965,0,0,1,3.29113-.99164,4.62126,4.62126,0,0,1,3.39092,1.14054,4.12165,4.12165,0,0,1,1.15051,3.06241V81.3001h-3.569q-4.6205,0-7.16866,1.85433a6.06652,6.06652,0,0,0-2.54818,5.20534,5.80549,5.80549,0,0,0,2.03241,4.55141,7.57077,7.57077,0,0,0,5.20457,1.7937,8.18413,8.18413,0,0,0,6.108-2.65716,7.66888,7.66888,0,0,0,.51577,2.26035h3.84682v-.31775a12.06077,12.06077,0,0,1-.7537-4.69955Zm-3.668,8.88254a5.40106,5.40106,0,0,1-2.24118,2.31946,6.4479,6.4479,0,0,1-3.272.89339,4.41782,4.41782,0,0,1-2.955-.97245,3.33869,3.33869,0,0,1-1.149-2.69631q0-3.94506,6.74114-3.94583h2.87592ZM309.41993,72.4567a7.5578,7.5578,0,0,0-6.22692,2.77612l-.17806,1.4583-3.35178,1.535v24.33048h3.66876V92.22655a7.86483,7.86483,0,0,0,6.14787,2.47833,7.18249,7.18249,0,0,0,6.06727-2.99411,12.85759,12.85759,0,0,0,2.24117-7.89166v-.33772q0-5.19459-2.25115-8.11041A7.31756,7.31756,0,0,0,309.41993,72.4567Zm3.14223,17.16181a4.95817,4.95817,0,0,1-4.19373,2.09226,5.40335,5.40335,0,0,1-5.0365-2.935V78.524a5.39339,5.39339,0,0,1,4.99658-2.955,4.98274,4.98274,0,0,1,4.2444,2.103,9.48049,9.48049,0,0,1,1.54657,5.73033q0,4.12467-1.55729,6.21693ZM330.89445,72.4567a8.57473,8.57473,0,0,0-4.74867,1.41761,9.5096,9.5096,0,0,0-3.41087,3.92665,12.87606,12.87606,0,0,0-1.21959,5.70039V84.176a10.63276,10.63276,0,0,0,2.737,7.66372,9.37145,9.37145,0,0,0,7.09881,2.86516,9.00815,9.00815,0,0,0,8.0897-4.14462l-2.2404-1.74458a8.2662,8.2662,0,0,1-2.35937,2.10224,6.38965,6.38965,0,0,1-3.29191.79285,5.82781,5.82781,0,0,1-4.51149-1.95335,7.62609,7.62609,0,0,1-1.85358-5.12551h14.53459V83.10454q0-5.13473-2.32023-7.89167A8.03512,8.03512,0,0,0,330.89445,72.4567Zm5.15546,9.16115H325.30305a7.85323,7.85323,0,0,1,1.8643-4.53146,4.89373,4.89373,0,0,1,3.72708-1.61564,4.60746,4.60746,0,0,1,3.6488,1.53658A6.98843,6.98843,0,0,1,336.04989,81.34Z"/><path class="cls-2" d="M233.31017,40.98716c-.39068.121-.77219.25874-1.14788.41322a.36533.36533,0,0,1-.49259-.41358c.26909-1.38746.474-2.85684.64811-4.42075,1.46288-13.13668.05663-16.60247-1.33182-18.15412a4.15421,4.15421,0,0,0-3.357-1.35337,4.76127,4.76127,0,0,0-3.63,1.68841c-2.49979,2.80183-3.17267,8.90929-2.05727,18.67117a32.52185,32.52185,0,0,0,3.15279,11.33044.92591.92591,0,0,1,.0824.66916,4.76683,4.76683,0,0,1-1.23434,2.26625,3.41323,3.41323,0,0,1-2.36634.91361c-2.99-.21048-3.89011-4.081-3.927-4.24568-1.09156-4.87308-3.77384-7.78268-7.17563-7.78268-2.342,0-4.37885,1.75474-5.77651,4.6374a.28679.28679,0,0,1-.51409,0c-1.39771-2.88266-3.43458-4.6374-5.77667-4.6374a5.50493,5.50493,0,0,0-4.11017,2.07786v-.04984a.9014.9014,0,0,0-.90138-.90138l-1.96817.00006a.7805.7805,0,0,0-.7825.76017C190.51173,48.99219,188.684,52.593,187.4063,52.593c-1.53668,0-3.83671-4.09243-3.97162-10.32049a.58472.58472,0,0,0-.58164-.57662l-2.506,0a.574.574,0,0,0-.57051.564c-.1652,6.11811-2.99779,10.33316-5.54781,10.33316-2.552,0-5.387-4.22148-5.54817-10.34716a.55949.55949,0,0,0-.55625-.55l-2.63251.00042a.47791.47791,0,0,0-.46157.46984l-.00156.22306c-.02327,4.48188-.984,7.68875-2.782,9.2806a4.24726,4.24726,0,0,1-3.08321,1.11189l-.08515-.01119c-.16572-.02043-2.51853-.36134-4.76906-3.3188a.66836.66836,0,0,1-.01379-.7769,24.19123,24.19123,0,0,0,4.05-10.64093c1.05669-8.89454.5-14.218-1.752-16.75346a5.02254,5.02254,0,0,0-4.03341-1.66808,4.88962,4.88962,0,0,0-3.73428,1.73467c-2.41542,2.72759-3.05369,8.44765-1.9512,17.4866a30.72926,30.72926,0,0,0,2.58469,9.57406.63229.63229,0,0,1-.08578.68386,34.62194,34.62194,0,0,1-7.987,6.78668.898.898,0,0,0-.324,1.188l.44757.84681.41519.78885a.90118.90118,0,0,0,1.26036.35369,37.74155,37.74155,0,0,0,8.00612-6.482.67031.67031,0,0,1,.99069.00281,10.95656,10.95656,0,0,0,6.47152,3.81345,7.78887,7.78887,0,0,0,5.90971-1.90553,9.6279,9.6279,0,0,0,2.21446-2.81747.39527.39527,0,0,1,.68912-.01506c1.66837,2.83633,4.06188,4.58553,6.76148,4.58553,2.70939,0,5.10946-1.76364,6.77845-4.61853a.42231.42231,0,0,1,.74659.02927c1.37294,2.85308,3.364,4.58926,5.65258,4.58926a4.646,4.646,0,0,0,3.24565-1.33356.90134.90134,0,0,0,.90138.9014h2.11557a.67041.67041,0,0,0,.62661-.66781l.00151-.23768c.05064-6.53088,2.45118-10.68613,4.10934-10.68613,1.6373,0,3.99822,4.05092,4.10638,10.43976l.00276.12695a.338.338,0,0,0,.32343.32993h3.22243c.2859,0,.30292-.24783.30459-.37048.08822-6.4387,2.46305-10.52616,4.10768-10.52616,1.52726,0,2.948,1.937,3.61936,4.93458,1.10374,4.93153,4.58329,6.89855,7.19416,7.08207.05236.00458.1805.01374.36887.01374a7.05765,7.05765,0,0,0,4.70909-1.83635c.13523-.12372.26431-.25455.3873-.38961a.48312.48312,0,0,1,.71567-.01205,7.99622,7.99622,0,0,0,3.23935,2.02092,10.75039,10.75039,0,0,0,3.46425.55262,12.838,12.838,0,0,0,3.7894-.58617c5.41988-1.67927,8.64392-6.291,7.34011-10.49857C243.9969,41.28712,238.73057,39.30688,233.31017,40.98716Zm-80.67839,3.3104a.50021.50021,0,0,1-.91834-.07565,31.87039,31.87039,0,0,1-1.22169-5.82966c-1.29924-10.65414.31011-13.78031,1.06231-14.62988a1.29592,1.29592,0,0,1,1.00589-.50586,1.44841,1.44841,0,0,1,1.30887.44385c.66549.74939,2.08143,3.60408.85771,13.90336A19.57,19.57,0,0,1,152.63178,44.29756Zm76.06412-8.13517a38.99508,38.99508,0,0,1-1.15469,6.45512.48285.48285,0,0,1-.93147-.00523,37.20054,37.20054,0,0,1-1.04711-5.608c-1.32922-11.62977.36528-14.94509,1.15558-15.83072a1.15012,1.15012,0,0,1,.9108-.47078c.51658,0,.543.02949.6414.13931C228.715,21.33933,230.05994,23.91287,228.6959,36.16239ZM236.882,52.51271a8.30214,8.30214,0,0,1-5,.06456,3.6688,3.6688,0,0,1-2.43088-2.1704,3.668,3.668,0,0,1,.77761-3.16429,8.30639,8.30639,0,0,1,4.16024-2.77487,9.20344,9.20344,0,0,1,2.71059-.41894c2.302,0,4.22989.94208,4.7205,2.52475C242.49582,48.75407,240.23467,51.47353,236.882,52.51271Z"/><path class="cls-2" d="M390.49619,48.92242l-1.875-.4199a.86988.86988,0,0,0-1.01214.552c-.41607,1.17088-1.48494,3.34657-3.72064,3.51718l-.04424.00193a3.43788,3.43788,0,0,1-2.27182-.88142,5.70631,5.70631,0,0,1-1.51618-3.60587.943.943,0,0,1,.11336-.56078c1.8546-3.40525,2.60431-7.389,3.106-12.20553,1.47454-14.15452.02561-17.78707-1.40167-19.37076a4.0799,4.0799,0,0,0-3.28843-1.32643,4.64237,4.64237,0,0,0-3.52473,1.64164c-2.58494,2.876-3.293,9.407-2.16377,19.96661.13242,1.23969.305,2.42226.5106,3.5564a.65987.65987,0,0,1-.77927.75916,11.42344,11.42344,0,0,0-2.3273-.16952v-.002c-.0507,0-.09588.00572-.14616.00622-.14709.00572-.29313.00775-.44178.01894a10.28169,10.28169,0,0,0-4.615,1.21458,11.37359,11.37359,0,0,0-4.31535,3.41981,8.138,8.138,0,0,0-1.4518,3.08952,6.246,6.246,0,0,1-.78463,2.01122c-1.02171,1.60757-2.03031,2.43686-3.8898,2.43686a2.0068,2.0068,0,0,1-1.62871-.67007c-1.34473-1.50489-1.30642-5.08406-1.18-6.33523a3.84832,3.84832,0,0,0-.80176-3.48c-1.77174-2.00819-5.36923-1.78907-8.42938-1.50184-.03727-.04726-.07641-.09455-.1169-.14082a3.6975,3.6975,0,0,0-2.90629-1.23238,2.71478,2.71478,0,0,0-2.07383.82974,2.48426,2.48426,0,0,0-.64613,1.8999A2.706,2.706,0,0,0,339.271,44.2796c.07787.02457.158.04547.24114.063a.40394.40394,0,0,1,.32354.3927c-.014,3.11584-.70906,5.41634-2.02818,6.68591a4.11,4.11,0,0,1-2.9319,1.16069l-.06766-.0056c-3.8288-.25369-4.02274-3.8954-4.02274-4.62293V41.67389a.87535.87535,0,0,0-.87535-.87535h-1.89363a.87525.87525,0,0,0-.87525.87525,6.39649,6.39649,0,0,0-1.40906-.74469,12.472,12.472,0,0,0-13.17424,4.01079l-.472.55968c-.70286.72556-1.5157,1.5524-2.38736,2.439q-.61053.62084-1.24818,1.27022a.8349.8349,0,0,1-1.43087-.5842v-6.561a.67074.67074,0,0,0-.6707-.6707H303.8206c-.5146,0-.47494.57225-.47494.57225-.095,6.25037-2.96927,10.57758-5.55323,10.57758-2.57167,0-5.52772-4.28545-5.5526-10.48857-.0001-.02624-.00213-.02429-.00213-.05057,0-.63864-.6898-.61069-.6898-.61069h-2.39528a.87157.87157,0,0,0-.87369.84025c-.17233,5.78958-2.11968,10.05639-4.66439,10.05639-3.51359,0-4.45359-5.508-4.69738-7.96721a4.11946,4.11946,0,0,0-1.72224-3.49478,7.07109,7.07109,0,0,0-5.16463-.73656.83812.83812,0,0,1-.78828-.31422q-.04059-.05172-.08364-.10178a2.78374,2.78374,0,0,0-2.14039-.97612c-1.80354,0-2.90094.64006-3.45359,2.01428a3.03473,3.03473,0,0,0,.65379,3.10231,2.86318,2.86318,0,0,0,1.2335.77435.52389.52389,0,0,1,.34107.70523,12.0729,12.0729,0,0,1-10.89846,7.40225c-4.1045,0-5.56837-2.16912-5.65774-3.26714.018-.13637.09442-.46774.39026-.39973a9.84333,9.84333,0,0,0,5.04966,1.24737l.27148.00762c3.26345,0,6.25083-2.10427,6.65879-4.69106a4.56478,4.56478,0,0,0-1.63932-4.16941l-.50727-.38589-.06745-.05134c-3.13156-2.13785-7.953-1.32847-11.10692,1.98479a9.27977,9.27977,0,0,0-2.70221,6.34949c0,2.91467,2.8888,7.01954,9.27309,7.01905.06662.0015.134.002.20257.002a15.82463,15.82463,0,0,0,14.88768-11.87481l.05111-.2349c.01624-.10878.03607-.25774.05361-.43671,1.54173-.32031,2.63782-.27505,3.0489.01322.04268.03.17312.12151.17312.60907l.00838.17387c.32665,3.40986,1.7924,11.341,8.33251,11.341,2.51031,0,4.60511-1.48662,6.06487-4.07622a.8752.8752,0,0,1,1.50634.00011c1.65993,2.68492,3.98937,4.32927,6.60668,4.32927a7.254,7.254,0,0,0,5.448-2.75074.07612.07612,0,0,1,.13475.04861l0,.66037a.87845.87845,0,0,1-.23432.5953,63.26458,63.26458,0,0,0-4.54359,5.34745c-6.49515,8.95658-5.84719,14.28977-4.15978,17.18615a5.89025,5.89025,0,0,0,5.10488,3.02618,3.23582,3.23582,0,0,0,.34925-.01881c4.51464-.5074,7.36425-3.45122,7.12764-18.50358V56.28254a.87578.87578,0,0,1,.24026-.60343c1.01526-1.06978,2.054-2.1412,3.05379-3.164a.8809.8809,0,0,1,1.39366.16175,7.50055,7.50055,0,0,0,4.20225,3.323,10.7494,10.7494,0,0,0,3.4643.55265,12.83787,12.83787,0,0,0,3.78935-.58619,12.42564,12.42564,0,0,0,4.61484-2.5749.8659.8659,0,0,1,1.254.07784,7.5316,7.5316,0,0,0,5.51,2.74161c.08338.0071.23641.01728.44491.01728a7.763,7.763,0,0,0,5.26732-2.1043c2.084-1.95068,3.16607-5.01655,3.224-9.12532a.90794.90794,0,0,1,.85458-.8859,9.21849,9.21849,0,0,1,3.73038.21127c.00843.00427.03316.01361.04107.018a.30429.30429,0,0,1,.18238.31843c-.0024.06434-.0076.06691-.02311.21317l-.02707.19414c-.073.62789-.63468,6.22085,2.06716,9.255a5.6573,5.6573,0,0,0,4.353,1.89381A7.30371,7.30371,0,0,0,359.95,54.1588a.85461.85461,0,0,1,1.17843.00562,8.0601,8.0601,0,0,0,3.0526,1.83544,10.74888,10.74888,0,0,0,3.46425.55265,12.83852,12.83852,0,0,0,3.78945-.58619,12.22566,12.22566,0,0,0,5.209-3.12636.814.814,0,0,1,1.26832.11443,7.27949,7.27949,0,0,0,1.19983,1.42621,7.06011,7.06011,0,0,0,4.70061,1.83789c.17874,0,.29876-.00864.34425-.01272,2.476-.17431,5.68486-1.91092,6.9892-6.18252A.86494.86494,0,0,0,390.49619,48.92242ZM253.34483,45.41335a1.93653,1.93653,0,0,1,.57722-.78892c1.913-1.37091,4.29984-1.61775,5.662-.43737l.09582.08187a.92771.92771,0,0,1,.32743.757c-.08723.55213-1.33483,1.605-3.03417,1.61522l-.18993-.00611a6.51784,6.51784,0,0,1-3.2141-.70453A.527.527,0,0,1,253.34483,45.41335Zm48.62831,29.707a2.48646,2.48646,0,0,1-4.46609.17626q-.03435-.0648-.06719-.13238c-.78953-1.62743-1.30585-5.472,4.10767-12.9369.19061-.26284.67492-.89237.9032-1.18215a.462.462,0,0,1,.76168-.0552,1.54371,1.54371,0,0,1,.16281.81639C303.49545,69.45836,302.82715,73.236,301.97314,75.12034ZM326.24435,49.7109a8.81357,8.81357,0,0,1-9.16046,2.83944,3.66908,3.66908,0,0,1-2.431-2.17038,3.40073,3.40073,0,0,1,.56452-2.86c.02576-.03953.07287-.0984.1-.13689a7.05594,7.05594,0,0,1,1.22938-1.3071c.02894-.02644.05247-.05452.08307-.07906a9.01084,9.01084,0,0,1,2.96089-1.5561,9.23827,9.23827,0,0,1,2.71236-.41842,7.12262,7.12262,0,0,1,2.2878.35435,3.66694,3.66694,0,0,1,2.431,2.16988A3.66847,3.66847,0,0,1,326.24435,49.7109Zm44.11131,2.77487a8.30223,8.30223,0,0,1-5,.06457A3.66884,3.66884,0,0,1,362.92478,50.38a2.55046,2.55046,0,0,1-.085-.42l-.00188-.02665c-.00593-.05869,0-.32278,0-.32278.18155-2.20577,1.93038-3.66089,3.71523-4.64563l.12617-.06836a9.45241,9.45241,0,0,1,1.18338-.45577,9.20432,9.20432,0,0,1,2.71059-.41894c2.03916,0,3.78185.74071,4.49491,2.00947a.259.259,0,0,1,.01728.0374c.08037.215.158.4344.242.64332a.23338.23338,0,0,1,.01166.03716C375.82191,48.89306,373.60589,51.47832,370.35566,52.48577Zm8.22223-10.94171a.56232.56232,0,0,1-1.08907-.00973,43.14672,43.14672,0,0,1-.96852-5.69069c-1.35847-12.70556.42222-16.22119,1.25063-17.14344a1.04194,1.04194,0,0,1,.81445-.43315c.47156,0,.49269.02337.58139.122.46437.515,1.872,3.23193.48426,16.55367A46.2996,46.2996,0,0,1,378.57789,41.54406Z"/><rect class="cls-3" x="26.72834" y="10.29625" width="89.56231" height="89.56231"/><path class="cls-4" d="M96.03558,68.00565c-2.03963-1.54637-3.12515-.79926-5.62486.07071-5.11245,1.77927-5.62529,2.42992-11.67149,5.30261-1.85453.88114-1.84252,1.90841-3.47505.52776C66.73252,66.6914,60.17765,62.87324,53.21769,55.702c-1.75769-1.82836-3.02289-1.82836-4.92195-.28117C41.18541,61.2651,34.03933,67.04273,26.88433,72.822v27.93347L84.31616,99.5901l12.73681.00081h19.23768V82.791C109.4761,77.90891,102.72254,73.02187,96.03558,68.00565Z"/><path class="cls-5" d="M99.44965,37.88573a10.44893,10.44893,0,1,0-.104.00051q.052,0,.104-.00051Z"/><path class="cls-2" d="M81.47191,31.52948c-.04589-.77408-1.06137-1.36748-2.26812-1.32536s-2.14787.70375-2.102,1.47783,1.06132,1.36748,2.26812,1.32536S81.5178,32.30356,81.47191,31.52948Z"/><path class="cls-2" d="M22.00724,81.81178c.17669,0,.3558-.00081.53492-.00283,6.93951-.07679,15.24737-1.91574,19.94642-4.22885.04169.12428.088.24732.12324.37338a11.3425,11.3425,0,0,1,.2823,5.63895,9.186,9.186,0,0,1-.97769,2.564,7.92944,7.92944,0,0,1-1.71218,2.05246,8.0175,8.0175,0,0,1-2.31893,1.33374,10.04142,10.04142,0,0,1-2.75461.54568l.25864,3.50658.06129-.00443c7.20778,4.25835,8.71578,8.94028,9.61024,9.384,1.18381.58724,5.64042-1.01969,4.83577-4.69662-.473-2.16165-2.9895-3.73582-5.36222-4.76485.43619-.04248.87314-.09759,1.31064-.16043a1.8886,1.8886,0,0,0,.27106-.023c.09568-.01631.18924-.03627.28468-.053.09067-.016.18007-.03409.27049-.05043.432-.07461.86428-.15348,1.29677-.24788.00836-.00182.0155-.00585.02381-.00777a48.77862,48.77862,0,0,0,17.67059-7.27343c4.99847,3.17375,10.43349,7.71324,12.24668,11.87641a1.9405,1.9405,0,0,1-1.42406,1.50574l-.00319-.00073,1.83137,3.40755c5.81508-2.93945,9.98378-1.30588,12.83554.01368l.98585.50447c.15034.08442.0154.00218.15034.08442l.48467-.168c.83053-.52118,2.96331-2.51,2.43087-4.53356-.65674-2.496-2.296-3.44729-3.87079-3.16213-1.57486.28539-5.56646,2.79251-5.26547.38374a.09146.09146,0,0,0-.0195-.02591,35.41815,35.41815,0,0,0,.02021-8.77705c-.87663-6.88632-3.91041-12.22378-8.79713-15.55269a19.67154,19.67154,0,0,0,.763-3.42161A43.13461,43.13461,0,0,0,88.926,70.3573c1.52344.13773,4.9818.17073,7.58009.13993l.35565,1.30239a.06034.06034,0,0,0,.07593.04139l1.413-.51293a2.6413,2.6413,0,0,1,.38067-.12933c.12385-.03269.18925-.03568.19289.06352a6.92263,6.92263,0,0,1-.12967.81833c-.14817.73389-.16159.84483-.30981,1.57869l-.15717.92142c-.03815.3433.14889.5251.57217.356.36552-.1647.84-.38826.86135-.39847,2.4211-1.00735,5.05612-2.46013,7.47089-3.48229a3.59681,3.59681,0,0,0,1.93932-2.77412,6.91872,6.91872,0,0,0-.04336-2.23291l3.81786.32.01722-.02867,1.14515-3.05449.00005-.00005,3.24465.32429,1.14151-3.05218,3.24409.32515,1.13791-3.0493,3.23624.32863,1.14075-3.05272V55.1095l3.24039.3266,1.13872-3.05158,3.24191.32622.0002-.00005,1.137-3.04986,1.90635.19123V49.852l.47038-2.79744.01084-.1-1.64436-7.804L90.48071,57.44183a.16149.16149,0,0,0-.05528.2639L92.519,59.81632a.1615.1615,0,0,0,.16545.03956l.9426-.31243a.573.573,0,0,1,.72249.3215l.52813,1.28266s.052.167-.232.167l-.2705-.01294c-.35276-.01186-.78555-.04541-1.13684-.06368a19.05637,19.05637,0,0,1-2.07366-.29308c-.342-.06527-.67761-.15767-1.01751-.23173-.33705-.086-.66854-.19492-1.00357-.28961l-.98848-.34995c-.32424-.13665-.65248-.26022-.97475-.40534-.64433-.29231-1.28045-.612-1.90959-.96571-.31477-.17611-.63014-.3515-.94025-.54616q-.46873-.27882-.93124-.58461c-.61855-.39871-1.23188-.82492-1.84946-1.2548-.61612-.43186-1.23228-.879-1.85129-1.32994-.04062-.02984-.08277-.05955-.12349-.08938C80.27154,46.7131,82.455,43.32105,84.175,41.91925a4.48184,4.48184,0,0,1,1.96916-.96989,5.42374,5.42374,0,0,0-.07791.54958,10.26937,10.26937,0,0,0-.04548,1.54885l2.40053.18117c.05932-.20176.11007-.40213.15906-.60123.05025-.19887.12866-.38885.17942-.58334.05015-.19484.13717-.3792.20186-.56753.06144-.189.16224-.36786.23311-.55308.07036-.18456.17354-.36423.258-.54553.08125-.18192.1899-.36355.28229-.54479.20176-.36135.41264-.73407.64114-1.10927.23474-.37894.47145-.77.71074-1.18152.24223-.4117.48214-.84039.703-1.29537.10871-.23061.22552-.452.32424-.69364.10065-.24348.20293-.46264.29578-.7363l.14-.3947.06853-.19715.04868-.16562.09731-.33125.04827-.16575.012-.04143.03576-.139c.00861-.03847.01778-.07808.03039-.1545.00573-.03621.01378-.08763.02022-.169l.00445-.08234-.0004-.12811a1.71067,1.71067,0,0,0-.0345-.28855c-.0038-.023-.01839-.0827-.03951-.153l.0002.00018-.00146-.00423c-.01419-.04681-.0307-.09726-.05081-.14731a8.09341,8.09341,0,0,0-2.22345-3.35439,12.26575,12.26575,0,0,0-1.16688-.95993c.289.0103.57063.01937.83363.025.8006.02743,1.46868.04372,1.93607.04645.46811.01.7303.00534.7303.00534l.28868-2.91506s-.27273-.05784-.74149-.13248c-.46937-.08331-1.14009-.18317-1.94677-.28722-.10774-.01481-.22384-.02923-.33629-.04384l.26816-.05919a12.4567,12.4567,0,0,0-14.43826-9.45787,11.77482,11.77482,0,0,0-7.68495,5.11209,11.6443,11.6443,0,0,0-1.91019,7.00878,12.47818,12.47818,0,0,0-1.11461.98139l-1.16051,1.204q-1.1316,1.16226-2.3017,2.29768c-1.56027,1.51453-3.164,3.00049-4.7802,4.494a116.889,116.889,0,0,0-9.50605,9.4602A40.72285,40.72285,0,0,0,43.4839,51.277a29.1095,29.1095,0,0,0-2.81216,6.44044,27.04875,27.04875,0,0,0-.76347,3.44853c-.10273.57293-.16159,1.17818-.22116,1.781l-.04518.45138-.02143.41289-.04214.82456-.01054.20614-.00593.26364-.006.438.00836.87846c.00887.28341.01966.56708.03445.85095a58.45987,58.45987,0,0,0-17.57319-2.6c-6.81734.07538-11.75193,1.50992-14.27049,4.148a6.307,6.307,0,0,0-1.83857,4.64687C6.102,78.71049,12.1032,81.81178,22.00724,81.81178Zm42.73174.02931a46.18452,46.18452,0,0,0-.93377-13.20565,8.74189,8.74189,0,0,1-.06605-4.10467,1.47859,1.47859,0,0,1,1.841-.88666c3.502.974,6.33956,1.97683,8.84925,2.88852C74.01126,72.23014,70.42905,77.62247,64.739,81.84109Zm17.71067,14.026-1.18223.24737c-2.36923-5.3898-8.778-10.27486-12.50877-12.77425a28.83236,28.83236,0,0,0,7.13373-8.75483C84.24618,80.88865,82.8639,93.19634,82.44965,95.86712Zm23.09568-40.614,28.76488-11.48926.29491,1.57737a.49838.49838,0,0,1-.58334.62176.34471.34471,0,0,0-.41324.19439l-1.05474,2.827-3.241-.3254-1.13761,3.0495v0l-3.24049-.32655-.0001.00008-1.13913,3.05109-3.23821-.32753-1.13857,3.05155v0l-3.24242-.32387-1.14146,3.05211v.00005l-3.2416-.32487-1.00971,2.69175a.50644.50644,0,0,1-.52412.32614l-.26392-.02611c-.19745-.01953-1.40714-.13333-1.46777-.32227l-2.98236-6.97692Zm-6.559,3.61247a2.482,2.482,0,0,1,2.1121-1.33734,2.07957,2.07957,0,0,1,2.13115,1.32814c.07158.05545,2.69824,6.69352,2.64936,6.59285a2.04093,2.04093,0,0,1-.28256,2.4151,6.38089,6.38089,0,0,1-2.19751,1.15634c-.367.14983-.37667-.07165-.50685-.44614-.04012-.11542-.153-.43211-.29653-.84084.04447-.07994.08981-.15944.13241-.24029a7.579,7.579,0,0,0,.76063-2.48831,8.61089,8.61089,0,0,0,.05238-1.68109c-.01677-.27786-.04762-.55373-.09194-.83142-.02132-.139-.04716-.27767-.0777-.42049l-.04944-.21736c-.02123-.0833-.03288-.13428-.07284-.26705l-.00289-.00952a1.6632,1.6632,0,0,0-.55346-.8194,7.17214,7.17214,0,0,0-.97014-.6729,5.02607,5.02607,0,0,0-.55518-.28131,5.71874,5.71874,0,0,0-.60076-.22764,5.5108,5.5108,0,0,0-.64246-.15308,5.0182,5.0182,0,0,0-.65329-.0738l-.10212-.00772C99.07747,59.30125,98.91392,59,98.98634,58.86555ZM71.24581,22.16628a8.20866,8.20866,0,0,1,2.13373-2.197l.26381-.04822a3.79635,3.79635,0,0,1,.46967-.05324,5.25166,5.25166,0,0,1,.55908-.03718c.19629.00431.40792-.00291.62473.00714.2128.02457.43867.03782.6652.0693.22065.04837.4565.07426.68014.13889a6.40431,6.40431,0,0,1,.66935.20622,5.49029,5.49029,0,0,1,.6338.26249c.20788.08716.38913.20533.57447.30064.17157.11276.34588.20979.48867.31976a6.315,6.315,0,0,1,.67675.54608l.15764.15111a.64787.64787,0,0,1,.05688.06058l1.41368-.98427c-.00309-.0035-.009-.021-.05952-.099-.049-.07875-.11185-.17147-.19036-.28542a8.15117,8.15117,0,0,0-.71515-.87759c-.15424-.17679-.34146-.344-.53339-.53292-.2047-.17053-.41152-.36874-.65142-.538-.05431-.04159-.11246-.08181-.16848-.12289a8.94029,8.94029,0,0,1,7.69245,5.83739c-.6957-.05291-1.40993-.09938-2.12634-.14847-1.08381-.06557-2.16909-.13446-3.1902-.16037-1.0212-.0311-1.97589-.05-2.79878-.0541l-1.1374.01307c-.343.00167-.61723.01613-.85577.02135l-.73875.02979.00021.01393c-.14295.0042-.2859.00233-.4288.01165A17.40967,17.40967,0,0,0,73.58,24.213a17.1791,17.1791,0,0,0-3.54315.989l-.00912.00392A8.164,8.164,0,0,1,71.24581,22.16628ZM43.13919,65.173l.00177-.1491.01034-.20614.04143-.82459.021-.41164.03977-.36986c.05111-.49257.09457-.98374.18686-1.49513A23.48728,23.48728,0,0,1,44.1,58.72058a25.53477,25.53477,0,0,1,2.45833-5.63611,37.19532,37.19532,0,0,1,3.68438-5.09188,113.93018,113.93018,0,0,1,9.2084-9.1666c1.61635-1.49632,3.24181-3.0046,4.84-4.55856q1.19658-1.16884,2.37065-2.37055l.18925-.19679c.0539.07215.11184.14712.176.22488a10.11779,10.11779,0,0,0,1.04172,1.09759,9.85282,9.85282,0,0,0,1.53555,1.16724,11.65517,11.65517,0,0,0,1.9796.98516,10.63375,10.63375,0,0,0,1.11192.37877,11.44646,11.44646,0,0,0,1.16744.29608,19.55134,19.55134,0,0,0,2.43579.35428c.82472.05706,1.65652.087,2.48017.06476q.75648-.01557,1.50055-.06884l-.0192-1.53375c-.48041-.03123-.96184-.07391-1.44093-.12978-.77036-.08371-1.52866-.21668-2.263-.36778a17.333,17.333,0,0,1-2.08632-.59882,9.08228,9.08228,0,0,1-.93838-.37839,8.19447,8.19447,0,0,1-.84857-.42423,8.70155,8.70155,0,0,1-1.3849-.94114,7.33733,7.33733,0,0,1-1.54093-1.781c-.14608-.23676-.22733-.44356-.29987-.57161l-.02148-.04162.27146-.15926.318-.17478a13.6468,13.6468,0,0,1,4.12908-1.39906,13.88505,13.88505,0,0,1,1.45015-.15574q.36426-.02508.73029-.02039l.18287-.00114c.01965-.00048.0851.0001.06716-.00127l.10314.00337.41263.01338a21.57885,21.57885,0,0,1,3.00611.357,20.37733,20.37733,0,0,1,5.72314,1.94745A10.91392,10.91392,0,0,1,88.14974,31.46a5.07874,5.07874,0,0,1,1.16582,1.54112l-.02294.08011-.04752.166-.0466.12831-.091.256c-.0504.16427-.144.36279-.21452.54649-.06889.18742-.16372.37566-.24558.564-.07957.1875-.18463.37991-.27465.57037-.089.1918-.19436.39154-.2907.58714-.20384.39549-.416.8082-.624,1.23646-.04321.09-.08647.18292-.13.27389a7.19417,7.19417,0,0,0-5.19187,1.63914c-3.0626,2.36994-5.02314,6.91442-5.84861,13.51252-.13287-.09115-.26179-.18441-.39542-.27508-.65324-.44166-1.32386-.86268-1.99965-1.27922L72.86418,50.401l-1.05-.57473c-.71023-.36735-1.42811-.71958-2.15972-1.04488-.73581-.316-1.47745-.61743-2.23352-.87932-.37394-.14077-.7579-.25444-1.14055-.36917-.38062-.11747-.76251-.23263-1.15929-.32822-.38827-.09434-.79244-.21526-1.1647-.28536l-1.13609-.22208-.47479,1.7616c.729.25485,1.472.4985,2.137.76917.34116.1251.68252.27362,1.02348.42452.34177.14606.68106.29605,1.01391.46121.674.309,1.33045.65466,1.97959,1.01036.6495.35583,1.28562.7365,1.914,1.13009l.93362.60775.92147.63152.909.65641.90135.675q.89895.68475,1.79217,1.39476L77.672,57.65367c1.2145.95679,2.44825,1.93448,3.77455,2.83961q.49214.34416,1.00758.66971c.33675.22316.6884.43216,1.0403.641.70273.41889,1.44108.79577,2.19366,1.15063.37727.17564.76737.33088,1.15113.49609.39278.148.7893.28835,1.18679.42491.40478.11745.80622.24687,1.2147.35147.41152.09227.81955.20419,1.23533.27407a22.6381,22.6381,0,0,0,2.50245.31024c.41765.0154.83616.0447,1.25274.046l.52119-.01289A3.16931,3.16931,0,0,0,96.123,64.495l.29557-.15194a3.55266,3.55266,0,0,0,.55883-.38749c.07284-.07583.15024-.15062.22911-.22313a4.43909,4.43909,0,0,1,.49317-.39032,2.74933,2.74933,0,0,1,.9741-.44141,1.65936,1.65936,0,0,1,.85419.03541,2.21073,2.21073,0,0,1,.22025.08543,1.69123,1.69123,0,0,1,.2284.11633l.01094.00694c.01885.1336.03662.26844.04443.4043a5.09888,5.09888,0,0,1-.03,1.00094,3.9717,3.9717,0,0,1-.64226,1.74367,3.40822,3.40822,0,0,1-.28.36788,3.73962,3.73962,0,0,1-.329.34022,4.8781,4.8781,0,0,1-.37555.31287l-.0076.00539c-.08865.06325-.17851.12616-.271.187-.0468.0308-.0928.06225-.14279.09054a5.24732,5.24732,0,0,1-.45868.25581c-.154.08543-.32971.14936-.49257.22721l-.4256.16144c-.077-.38543-.14467-.8163-.20348-1.25976-2.49258.02733-5.79122-.00535-7.12932-.12674-4.88313-.44455-8.34468-1.70687-12.72694-3.30472-2.786-1.01634-5.944-2.16763-9.99441-3.2946a4.952,4.952,0,0,0-6.14544,3.24516,12.254,12.254,0,0,0-.02472,5.80018c1.36535,7.07289,1.39306,12.6348.08115,15.286a47.35452,47.35452,0,0,1-13.23906,4.75487l-.02006.0023c-.16939.037-.33858.0672-.50787.10073q-.35909.06956-.72142.13391-1.20417.20363-2.399.28822a11.64924,11.64924,0,0,0,1.43323-1.93651,12.72752,12.72752,0,0,0,1.38014-3.57793,14.88758,14.88758,0,0,0-.33173-7.41585c-.08369-.2977-.18059-.59046-.28777-.87939-.09807-.29266-.2164-.57656-.33509-.86032-.1122-.287-.25-.56121-.38047-.83918l-.353-.73738c-.1817-.41671-.375-.86812-.53111-1.34114-.16311-.46615-.30034-.94436-.42019-1.429a19.85659,19.85659,0,0,1-.48988-2.985c-.05-.50678-.07147-1.01961-.08844-1.53284l-.008-.77264ZM10.445,71.389c1.75873-1.84262,5.9947-2.93515,11.62184-2.99755,6.17726-.07,13.77048,1.23126,18.12113,3.06548.0199.08474.03657.16987.05749.25446.14568.58349.31406,1.1641.51536,1.73678.08115.24152.17405.48183.26974.723-3.7476,1.925-11.55539,3.84227-18.5297,3.9193-6.327.06281-12.74842-1.37336-12.86837-4.75427A2.60445,2.60445,0,0,1,10.445,71.389Z"/></svg>