<svg id="Layer_1" data-name="Layer 1" xmlns="http://www.w3.org/2000/svg" viewBox="0 0 437 121"><defs><style>.cls-1{fill:#66459a;}</style></defs><title>right-logo</title><path class="cls-1" d="M164.36248,50.189c-.65439.20271-1.29345.43339-1.92274.69215a.61193.61193,0,0,1-.8251-.69276c.45073-2.324.79389-4.78532,1.0856-7.40493,2.45038-22.00445.09486-27.80978-2.23085-30.40885a6.95847,6.95847,0,0,0-5.62307-2.26695,7.9753,7.9753,0,0,0-6.08044,2.82815c-4.18725,4.69317-5.31435,14.92341-3.446,31.27494.86564,7.57328,2.64741,13.93449,5.281,18.97892a1.55092,1.55092,0,0,1,.138,1.12088,7.98459,7.98459,0,0,1-2.06755,3.796,5.71731,5.71731,0,0,1-3.96371,1.53034c-5.00835-.35257-6.5161-6.8358-6.57782-7.11169-1.82842-8.1626-6.32133-13.03629-12.01947-13.03629-3.92291,0-7.33474,2.93926-9.67588,7.76783a.48038.48038,0,0,1-.86111,0c-2.34123-4.82857-5.75307-7.76783-9.67615-7.76783a9.221,9.221,0,0,0-6.8847,3.4805V52.886a1.50987,1.50987,0,0,0-1.50985-1.50984l-3.29675.00009a1.30735,1.30735,0,0,0-1.31072,1.27331c-.2218,10.9482-3.28333,16.97972-5.42351,16.97972-2.574,0-6.42664-6.855-6.65262-17.28722a.97943.97943,0,0,0-.97428-.96586l-4.19771,0a.96148.96148,0,0,0-.95562.94467c-.27672,10.24807-5.02142,17.30845-9.2928,17.30845-4.27469,0-9.0234-7.07114-9.29341-17.3319a.93714.93714,0,0,0-.93173-.92131l-4.40956.0007a.80052.80052,0,0,0-.77315.787l-.00261.37363c-.039,7.50732-1.64829,12.879-4.66,15.54538a7.11439,7.11439,0,0,1-5.16448,1.86246l-.14264-.01875c-.27759-.03422-4.21863-.60527-7.98836-5.55912a1.11955,1.11955,0,0,1-.0231-1.30135,40.521,40.521,0,0,0,6.78392-17.824c1.77-14.8987.83748-23.81578-2.93468-28.06271a8.413,8.413,0,0,0-6.75611-2.7941,8.1903,8.1903,0,0,0-6.25507,2.90565c-4.04592,4.56881-5.115,14.15014-3.26833,29.29073a51.47228,51.47228,0,0,0,4.32944,16.03693,1.0591,1.0591,0,0,1-.14368,1.1455A57.99254,57.99254,0,0,1,10.3866,75.132a1.50416,1.50416,0,0,0-.54263,1.99l.74969,1.41843.69547,1.32135a1.50951,1.50951,0,0,0,2.11114.59246A63.21922,63.21922,0,0,0,26.81084,69.59665a1.12278,1.12278,0,0,1,1.65945.00471c4.8617,5.4402,9.944,6.27952,10.84,6.38767a13.04667,13.04667,0,0,0,9.899-3.19183,16.12714,16.12714,0,0,0,3.70931-4.71938.6621.6621,0,0,1,1.15431-.02524c2.79458,4.751,6.8038,7.681,11.32574,7.681,4.53834,0,8.55854-2.95417,11.35417-7.73623a.70737.70737,0,0,1,1.25056.049c2.29972,4.779,5.63475,7.68719,9.4683,7.68719a7.7823,7.7823,0,0,0,5.43659-2.23377,1.50979,1.50979,0,0,0,1.50984,1.50988H97.9618A1.123,1.123,0,0,0,99.0114,73.891l.00253-.39812c.08483-10.93948,4.10582-17.89968,6.88331-17.89968,2.74253,0,6.69717,6.78544,6.87834,17.487l.00462.21264a.56612.56612,0,0,0,.54176.55265h5.3977c.4789,0,.50741-.41512.5102-.62057.14778-10.78507,4.1257-17.63172,6.88052-17.63172,2.55823,0,4.93808,3.24457,6.06257,8.2656,1.84881,8.26051,7.6772,11.55534,12.0505,11.86275.08771.00767.30235.023.61787.023a11.82187,11.82187,0,0,0,7.88792-3.076c.22651-.20724.44272-.42638.64874-.65262a.80926.80926,0,0,1,1.19877-.02018,13.394,13.394,0,0,0,5.426,3.38512,18.00722,18.00722,0,0,0,5.80276.92567,21.5042,21.5042,0,0,0,6.34739-.98186c9.0785-2.81285,14.47891-10.5377,12.295-17.58552C182.26317,50.69143,173.44186,47.37445,164.36248,50.189ZM29.223,55.734a.83788.83788,0,0,1-1.53827-.12672,53.38618,53.38618,0,0,1-2.04637-9.7649c-2.17627-17.84611.51944-23.08257,1.77942-24.50562a2.17068,2.17068,0,0,1,1.68491-.84734,2.42613,2.42613,0,0,1,2.1924.74346c1.11473,1.25527,3.48647,6.037,1.4367,23.28867A32.78051,32.78051,0,0,1,29.223,55.734ZM156.63341,42.1073a65.31774,65.31774,0,0,1-1.93417,10.81259.80878.80878,0,0,1-1.56023-.00877,62.31284,62.31284,0,0,1-1.754-9.39358c-2.22649-19.48032.61185-25.0336,1.93565-26.51707a1.92645,1.92645,0,0,1,1.52562-.78858c.8653,0,.90959.04939,1.07436.23335C156.6654,17.2781,158.91822,21.58889,156.63341,42.1073Zm13.712,27.38743a13.9063,13.9063,0,0,1-8.37511.10815c-1.22963-.419-3.394-1.44772-4.07181-3.63551-.67794-2.18686.52493-4.25965,1.30252-5.30032a13.91356,13.91356,0,0,1,6.96857-4.648A15.41588,15.41588,0,0,1,170.71,55.3173c3.856,0,7.08522,1.578,7.907,4.229C179.7488,63.19886,175.96129,67.75407,170.34545,69.49473Z"/><path class="cls-1" d="M427.65521,63.48086l-3.1407-.70336a1.4571,1.4571,0,0,0-1.69537.92454c-.697,1.96128-2.48735,5.60564-6.23222,5.89143l-.07411.00322a5.75855,5.75855,0,0,1-3.80539-1.47641c-1.35657-1.2414-2.21236-3.3111-2.53965-6.04a1.57953,1.57953,0,0,1,.18989-.93932c3.10652-5.70393,4.36231-12.377,5.20258-20.44474,2.46991-23.70937.0429-29.794-2.34785-32.44677a6.834,6.834,0,0,0-5.50825-2.22183,7.77613,7.77613,0,0,0-5.90407,2.74981c-4.32988,4.8175-5.51592,15.75715-3.62439,33.44485.2218,2.07653.5109,4.05739.85527,5.95712a1.1053,1.1053,0,0,1-1.30531,1.27161,19.13577,19.13577,0,0,0-3.89832-.284v-.0034c-.08492,0-.16059.00959-.24481.01042-.24638.00959-.491.013-.74.03174a17.22211,17.22211,0,0,0-7.73038,2.03447,19.051,19.051,0,0,0-7.22838,5.7283,13.63146,13.63146,0,0,0-2.43181,5.17508,10.46233,10.46233,0,0,1-1.31429,3.36886c-1.71142,2.69275-3.40086,4.08184-6.51557,4.08184a3.36144,3.36144,0,0,1-2.72815-1.1224c-2.25247-2.52074-2.1883-8.516-1.97662-10.61175a6.44608,6.44608,0,0,0-1.343-5.82922c-2.96772-3.3638-8.99367-2.99676-14.11954-2.51564-.06242-.07916-.128-.15837-.19581-.23587a6.1934,6.1934,0,0,0-4.86815-2.06429,4.54739,4.54739,0,0,0-3.47374,1.38983,4.16127,4.16127,0,0,0-1.0823,3.18242c.14647,1.95356,1.70793,3.46088,4.0162,3.9165.13042.04115.26469.07615.40392.10545a.67661.67661,0,0,1,.54193.6578c-.02354,5.21915-1.1877,9.07257-3.39728,11.19915a6.8842,6.8842,0,0,1-4.911,1.94419l-.11334-.00937c-6.41339-.42493-6.73824-6.52494-6.73824-7.74359V51.33929a1.46626,1.46626,0,0,0-1.46625-1.46625h-3.17191a1.46608,1.46608,0,0,0-1.46608,1.46608,10.714,10.714,0,0,0-2.36023-1.24738A20.89112,20.89112,0,0,0,297.10509,56.81l-.79058.93748c-1.17732,1.21534-2.53887,2.60034-3.99893,4.08547q-1.02267,1.03992-2.09075,2.12766a1.39848,1.39848,0,0,1-2.39676-.97854V51.992a1.1235,1.1235,0,0,0-1.12345-1.12345h-4.23441c-.862,0-.79555.95854-.79555.95854-.1592,10.4696-4.97364,17.71786-9.30187,17.71786-4.30765,0-9.25914-7.17829-9.30082-17.56878-.00017-.04394-.00357-.04067-.00357-.0847,0-1.06974-1.15544-1.02292-1.15544-1.02292h-4.01219a1.4599,1.4599,0,0,0-1.46346,1.40745c-.28867,9.69776-3.55055,16.84485-7.813,16.84485-5.8854,0-7.45994-9.22619-7.86831-13.3454a6.90016,6.90016,0,0,0-2.88481-5.85389c-2.29136-1.60936-5.47451-1.743-8.65095-1.23377a1.40385,1.40385,0,0,1-1.3204-.52633q-.068-.08664-.1401-.17049a4.66292,4.66292,0,0,0-3.58525-1.635c-3.021,0-4.85917,1.07214-5.78488,3.374a5.08328,5.08328,0,0,0,1.09511,5.19649,4.79608,4.79608,0,0,0,2.06616,1.29707.87754.87754,0,0,1,.57131,1.18129A20.22259,20.22259,0,0,1,203.8668,69.80388c-6.8752,0-9.32724-3.63337-9.47693-5.47259.03017-.22842.15815-.78348.6537-.66957a16.48783,16.48783,0,0,0,8.45837,2.0894l.45475.01277c5.4664,0,10.47039-3.52474,11.15373-7.85772a7.64616,7.64616,0,0,0-2.74593-6.98392l-.84969-.64638-.113-.086c-5.24548-3.581-13.32164-2.22523-18.60452,3.32461a15.544,15.544,0,0,0-4.5263,10.63564c0,4.88219,4.83885,11.758,15.53278,11.75717.11159.00253.22441.0034.33932.0034,6.84006,0,20.39073-4.109,24.93744-19.89078l.08561-.39346c.0272-.18221.06042-.43173.0898-.73151,2.58246-.53653,4.41846-.46072,5.107.02215.0715.05021.29.20353.29,1.02022l.014.29123c.54717,5.71165,3.00234,18.99663,13.95729,18.99663,4.20486,0,7.71374-2.49013,10.15889-6.82782a1.466,1.466,0,0,1,2.52317.00018c2.78046,4.49736,6.68235,7.2517,11.06646,7.2517,3.4427,0,6.587-1.70043,9.12567-4.6076a.12751.12751,0,0,1,.22572.08143l-.00009,1.10614a1.47141,1.47141,0,0,1-.3925.99716,105.96809,105.96809,0,0,0-7.61068,8.95719c-10.87963,15.00262-9.79428,23.93592-6.96779,28.78746a9.86641,9.86641,0,0,0,8.55087,5.069,5.41878,5.41878,0,0,0,.585-.03152c7.56221-.84991,12.33542-5.78092,11.93908-30.99421V75.80934a1.467,1.467,0,0,1,.40244-1.01076c1.7006-1.79192,3.44061-3.5866,5.11523-5.29975a1.47552,1.47552,0,0,1,2.33442.27092,12.56373,12.56373,0,0,0,7.03894,5.5661,18.00589,18.00589,0,0,0,5.80284.92571,21.50381,21.50381,0,0,0,6.34731-.9819,20.81347,20.81347,0,0,0,7.73-4.31305,1.45042,1.45042,0,0,1,2.10052.13038,12.61569,12.61569,0,0,0,9.2295,4.5923c.13967.0119.396.02895.74525.02895a13.00331,13.00331,0,0,0,8.823-3.52479c3.49083-3.26746,5.30329-8.40292,5.40024-15.28527a1.52082,1.52082,0,0,1,1.43146-1.4839c3.33721-.20122,5.38323-.08871,6.24853.35387.01412.00715.05554.0228.06879.03012a.50971.50971,0,0,1,.30549.53339c-.004.10776-.01273.11208-.03871.35706l-.04534.3252c-.12223,1.05174-1.06311,10.42017,3.46258,15.50253a9.47618,9.47618,0,0,0,7.29151,3.17221,12.234,12.234,0,0,0,8.86708-3.44666,1.43149,1.43149,0,0,1,1.97392.00941,13.501,13.501,0,0,0,5.11322,3.07444,18.005,18.005,0,0,0,5.80276.92571,21.50487,21.50487,0,0,0,6.34748-.9819,20.4786,20.4786,0,0,0,8.72533-5.23676,1.36354,1.36354,0,0,1,2.12448.19167,12.1941,12.1941,0,0,0,2.00976,2.389,11.826,11.826,0,0,0,7.87371,3.07853c.29939,0,.50044-.01447.57663-.02131,4.14732-.292,9.52236-3.20086,11.70718-10.356A1.44881,1.44881,0,0,0,427.65521,63.48086ZM197.92133,57.603a3.2437,3.2437,0,0,1,.96686-1.32148c3.20434-2.29633,7.2024-2.70979,9.484-.7326l.16051.13714a1.554,1.554,0,0,1,.54847,1.268c-.14612.92485-2.23591,2.68852-5.08236,2.70557l-.31813-.01025a10.91742,10.91742,0,0,1-5.38376-1.18011A.88279.88279,0,0,1,197.92133,57.603Zm81.4543,49.76037a4.16491,4.16491,0,0,1-7.48086.29525q-.05754-.10855-.11256-.22176c-1.32248-2.726-2.18734-9.16577,6.88052-21.6698.31927-.44028,1.13051-1.49476,1.5129-1.98015a.77392.77392,0,0,1,1.27584-.09246,2.58569,2.58569,0,0,1,.27271,1.36747C281.92557,97.87936,280.80614,104.20705,279.37563,107.3634Zm40.65523-42.5618a14.76306,14.76306,0,0,1-15.34412,4.75616c-1.22972-.419-3.394-1.44772-4.072-3.63546a5.69639,5.69639,0,0,1,.94559-4.79069c.04316-.06621.12206-.16482.16757-.22929a11.81885,11.81885,0,0,1,2.05927-2.18944c.04848-.04429.08788-.09132.13915-.13243a15.09331,15.09331,0,0,1,4.9596-2.60653,15.47421,15.47421,0,0,1,4.54331-.70086,11.93086,11.93086,0,0,1,3.83215.59354c1.23016.41813,3.39458,1.44773,4.072,3.63464C322.01115,61.68815,320.80836,63.76093,320.03086,64.8016Zm73.88818,4.648a13.90659,13.90659,0,0,1-8.3752.10815c-1.22963-.419-3.394-1.44772-4.07182-3.63546a4.27312,4.27312,0,0,1-.14245-.70353l-.00314-.04464c-.00994-.09829,0-.54066,0-.54066.30409-3.69475,3.23346-6.13214,6.22315-7.78161l.21134-.11451a15.834,15.834,0,0,1,1.9822-.76343,15.41746,15.41746,0,0,1,4.54034-.70174c3.41568,0,6.33475,1.24071,7.52917,3.36594a.43642.43642,0,0,1,.02894.06264c.13461.3602.26469.72763.40541,1.07759a.391.391,0,0,1,.01953.06225C403.07522,63.43169,399.3633,67.76209,393.919,69.44961Zm13.77254-18.3278a.94189.94189,0,0,1-1.82422-.0163,72.26944,72.26944,0,0,1-1.62231-9.53212c-2.27549-21.28231.70723-27.17112,2.09484-28.71593a1.7453,1.7453,0,0,1,1.36425-.72554c.78988,0,.82528.03915.97384.20436.77785.86268,3.13564,5.41361.81115,27.728A77.55019,77.55019,0,0,1,407.69158,51.12181Z"/></svg>